<?xml version="1.0" encoding="utf-8" standalone="no"?>
<!DOCTYPE svg PUBLIC "-//W3C//DTD SVG 1.1//EN"
  "http://www.w3.org/Graphics/SVG/1.1/DTD/svg11.dtd">
<svg xmlns:xlink="http://www.w3.org/1999/xlink" width="396pt" height="360pt" viewBox="0 0 396 360" xmlns="http://www.w3.org/2000/svg" version="1.1">
 <metadata>
  <rdf:RDF xmlns:dc="http://purl.org/dc/elements/1.1/" xmlns:cc="http://creativecommons.org/ns#" xmlns:rdf="http://www.w3.org/1999/02/22-rdf-syntax-ns#">
   <cc:Work>
    <dc:type rdf:resource="http://purl.org/dc/dcmitype/StillImage"/>
    <dc:date>2026-07-18T08:37:50.904225</dc:date>
    <dc:format>image/svg+xml</dc:format>
    <dc:creator>
     <cc:Agent>
      <dc:title>Matplotlib v3.10.9, https://matplotlib.org/</dc:title>
     </cc:Agent>
    </dc:creator>
   </cc:Work>
  </rdf:RDF>
 </metadata>
 <defs>
  <style type="text/css">*{stroke-linejoin: round; stroke-linecap: butt}</style>
 </defs>
 <g id="figure_1">
  <g id="patch_1">
   <path d="M 0 360 
L 396 360 
L 396 0 
L 0 0 
z
" style="fill: #ffffff"/>
  </g>
  <g id="axes_1">
   <g id="patch_2">
    <path d="M 58.824759 318.047558 
L 356.081548 318.047558 
L 356.081548 20.790769 
L 58.824759 20.790769 
z
" style="fill: #ffffff"/>
   </g>
   <g id="line2d_1">
    <path d="M 58.824759 318.047558 
L 356.081548 20.790769 
" clip-path="url(#p001e907244)" style="fill: none; stroke-dasharray: 4.44,1.92; stroke-dashoffset: 0; stroke: #000000; stroke-width: 1.2"/>
   </g>
   <g id="matplotlib.axis_1">
    <g id="xtick_1">
     <g id="line2d_2">
      <path d="M 58.824759 318.047558 
L 58.824759 20.790769 
" clip-path="url(#p001e907244)" style="fill: none; stroke-dasharray: 0.5,0.825; stroke-dashoffset: 0; stroke: #b0b0b0; stroke-opacity: 0.5; stroke-width: 0.5"/>
     </g>
     <g id="line2d_3">
      <defs>
       <path id="mf6f8303ef2" d="M 0 0 
L 0 3.5 
" style="stroke: #000000; stroke-width: 0.8"/>
      </defs>
      <g>
       <use xlink:href="#mf6f8303ef2" x="58.824759" y="318.047558" style="stroke: #000000; stroke-width: 0.8"/>
      </g>
     </g>
     <g id="text_1">
      <!-- $\mathdefault{10^{-1}}$ -->
      <g transform="translate(53.297259 328.876073) scale(0.055 -0.055)">
       <defs>
        <path id="Cmr10-31" d="M 594 0 
L 594 225 
Q 1394 225 1394 428 
L 1394 3788 
Q 1063 3628 556 3628 
L 556 3853 
Q 1341 3853 1741 4263 
L 1831 4263 
Q 1853 4263 1873 4245 
Q 1894 4228 1894 4206 
L 1894 428 
Q 1894 225 2694 225 
L 2694 0 
L 594 0 
z
" transform="scale(0.015625)"/>
        <path id="Cmr10-30" d="M 1600 -141 
Q 816 -141 533 504 
Q 250 1150 250 2041 
Q 250 2597 351 3087 
Q 453 3578 754 3920 
Q 1056 4263 1600 4263 
Q 2022 4263 2290 4056 
Q 2559 3850 2700 3523 
Q 2841 3197 2892 2823 
Q 2944 2450 2944 2041 
Q 2944 1491 2842 1011 
Q 2741 531 2444 195 
Q 2147 -141 1600 -141 
z
M 1600 25 
Q 1956 25 2131 390 
Q 2306 756 2347 1200 
Q 2388 1644 2388 2144 
Q 2388 2625 2347 3031 
Q 2306 3438 2132 3767 
Q 1959 4097 1600 4097 
Q 1238 4097 1063 3765 
Q 888 3434 847 3029 
Q 806 2625 806 2144 
Q 806 1788 823 1472 
Q 841 1156 916 820 
Q 991 484 1158 254 
Q 1325 25 1600 25 
z
" transform="scale(0.015625)"/>
        <path id="Cmsy10-a1" d="M 653 1472 
Q 600 1472 565 1512 
Q 531 1553 531 1600 
Q 531 1647 565 1687 
Q 600 1728 653 1728 
L 4325 1728 
Q 4375 1728 4408 1687 
Q 4441 1647 4441 1600 
Q 4441 1553 4408 1512 
Q 4375 1472 4325 1472 
L 653 1472 
z
" transform="scale(0.015625)"/>
       </defs>
       <use xlink:href="#Cmr10-31" transform="translate(0 0.223438)"/>
       <use xlink:href="#Cmr10-30" transform="translate(50 0.223438)"/>
       <use xlink:href="#Cmsy10-a1" transform="translate(104.5675 39.373438) scale(0.7)"/>
       <use xlink:href="#Cmr10-31" transform="translate(158.947383 39.373438) scale(0.7)"/>
      </g>
     </g>
    </g>
    <g id="xtick_2">
     <g id="line2d_4">
      <path d="M 207.453153 318.047558 
L 207.453153 20.790769 
" clip-path="url(#p001e907244)" style="fill: none; stroke-dasharray: 0.5,0.825; stroke-dashoffset: 0; stroke: #b0b0b0; stroke-opacity: 0.5; stroke-width: 0.5"/>
     </g>
     <g id="line2d_5">
      <g>
       <use xlink:href="#mf6f8303ef2" x="207.453153" y="318.047558" style="stroke: #000000; stroke-width: 0.8"/>
      </g>
     </g>
     <g id="text_2">
      <!-- $\mathdefault{10^{0}}$ -->
      <g transform="translate(203.410653 328.876073) scale(0.055 -0.055)">
       <use xlink:href="#Cmr10-31" transform="translate(0 0.223438)"/>
       <use xlink:href="#Cmr10-30" transform="translate(50 0.223438)"/>
       <use xlink:href="#Cmr10-30" transform="translate(104.5675 39.373438) scale(0.7)"/>
      </g>
     </g>
    </g>
    <g id="xtick_3">
     <g id="line2d_6">
      <path d="M 356.081548 318.047558 
L 356.081548 20.790769 
" clip-path="url(#p001e907244)" style="fill: none; stroke-dasharray: 0.5,0.825; stroke-dashoffset: 0; stroke: #b0b0b0; stroke-opacity: 0.5; stroke-width: 0.5"/>
     </g>
     <g id="line2d_7">
      <g>
       <use xlink:href="#mf6f8303ef2" x="356.081548" y="318.047558" style="stroke: #000000; stroke-width: 0.8"/>
      </g>
     </g>
     <g id="text_3">
      <!-- $\mathdefault{10^{1}}$ -->
      <g transform="translate(352.039048 328.876073) scale(0.055 -0.055)">
       <use xlink:href="#Cmr10-31" transform="translate(0 0.223438)"/>
       <use xlink:href="#Cmr10-30" transform="translate(50 0.223438)"/>
       <use xlink:href="#Cmr10-31" transform="translate(104.5675 39.373438) scale(0.7)"/>
      </g>
     </g>
    </g>
    <g id="xtick_4">
     <g id="line2d_8">
      <path d="M 103.566364 318.047558 
L 103.566364 20.790769 
" clip-path="url(#p001e907244)" style="fill: none; stroke-dasharray: 0.5,0.825; stroke-dashoffset: 0; stroke: #b0b0b0; stroke-opacity: 0.5; stroke-width: 0.5"/>
     </g>
     <g id="line2d_9">
      <defs>
       <path id="m396c48e8b9" d="M 0 0 
L 0 2 
" style="stroke: #000000; stroke-width: 0.6"/>
      </defs>
      <g>
       <use xlink:href="#m396c48e8b9" x="103.566364" y="318.047558" style="stroke: #000000; stroke-width: 0.6"/>
      </g>
     </g>
    </g>
    <g id="xtick_5">
     <g id="line2d_10">
      <path d="M 129.738525 318.047558 
L 129.738525 20.790769 
" clip-path="url(#p001e907244)" style="fill: none; stroke-dasharray: 0.5,0.825; stroke-dashoffset: 0; stroke: #b0b0b0; stroke-opacity: 0.5; stroke-width: 0.5"/>
     </g>
     <g id="line2d_11">
      <g>
       <use xlink:href="#m396c48e8b9" x="129.738525" y="318.047558" style="stroke: #000000; stroke-width: 0.6"/>
      </g>
     </g>
    </g>
    <g id="xtick_6">
     <g id="line2d_12">
      <path d="M 148.307969 318.047558 
L 148.307969 20.790769 
" clip-path="url(#p001e907244)" style="fill: none; stroke-dasharray: 0.5,0.825; stroke-dashoffset: 0; stroke: #b0b0b0; stroke-opacity: 0.5; stroke-width: 0.5"/>
     </g>
     <g id="line2d_13">
      <g>
       <use xlink:href="#m396c48e8b9" x="148.307969" y="318.047558" style="stroke: #000000; stroke-width: 0.6"/>
      </g>
     </g>
    </g>
    <g id="xtick_7">
     <g id="line2d_14">
      <path d="M 162.711548 318.047558 
L 162.711548 20.790769 
" clip-path="url(#p001e907244)" style="fill: none; stroke-dasharray: 0.5,0.825; stroke-dashoffset: 0; stroke: #b0b0b0; stroke-opacity: 0.5; stroke-width: 0.5"/>
     </g>
     <g id="line2d_15">
      <g>
       <use xlink:href="#m396c48e8b9" x="162.711548" y="318.047558" style="stroke: #000000; stroke-width: 0.6"/>
      </g>
     </g>
    </g>
    <g id="xtick_8">
     <g id="line2d_16">
      <path d="M 174.48013 318.047558 
L 174.48013 20.790769 
" clip-path="url(#p001e907244)" style="fill: none; stroke-dasharray: 0.5,0.825; stroke-dashoffset: 0; stroke: #b0b0b0; stroke-opacity: 0.5; stroke-width: 0.5"/>
     </g>
     <g id="line2d_17">
      <g>
       <use xlink:href="#m396c48e8b9" x="174.48013" y="318.047558" style="stroke: #000000; stroke-width: 0.6"/>
      </g>
     </g>
    </g>
    <g id="xtick_9">
     <g id="line2d_18">
      <path d="M 184.430324 318.047558 
L 184.430324 20.790769 
" clip-path="url(#p001e907244)" style="fill: none; stroke-dasharray: 0.5,0.825; stroke-dashoffset: 0; stroke: #b0b0b0; stroke-opacity: 0.5; stroke-width: 0.5"/>
     </g>
     <g id="line2d_19">
      <g>
       <use xlink:href="#m396c48e8b9" x="184.430324" y="318.047558" style="stroke: #000000; stroke-width: 0.6"/>
      </g>
     </g>
    </g>
    <g id="xtick_10">
     <g id="line2d_20">
      <path d="M 193.049574 318.047558 
L 193.049574 20.790769 
" clip-path="url(#p001e907244)" style="fill: none; stroke-dasharray: 0.5,0.825; stroke-dashoffset: 0; stroke: #b0b0b0; stroke-opacity: 0.5; stroke-width: 0.5"/>
     </g>
     <g id="line2d_21">
      <g>
       <use xlink:href="#m396c48e8b9" x="193.049574" y="318.047558" style="stroke: #000000; stroke-width: 0.6"/>
      </g>
     </g>
    </g>
    <g id="xtick_11">
     <g id="line2d_22">
      <path d="M 200.652291 318.047558 
L 200.652291 20.790769 
" clip-path="url(#p001e907244)" style="fill: none; stroke-dasharray: 0.5,0.825; stroke-dashoffset: 0; stroke: #b0b0b0; stroke-opacity: 0.5; stroke-width: 0.5"/>
     </g>
     <g id="line2d_23">
      <g>
       <use xlink:href="#m396c48e8b9" x="200.652291" y="318.047558" style="stroke: #000000; stroke-width: 0.6"/>
      </g>
     </g>
    </g>
    <g id="xtick_12">
     <g id="line2d_24">
      <path d="M 252.194758 318.047558 
L 252.194758 20.790769 
" clip-path="url(#p001e907244)" style="fill: none; stroke-dasharray: 0.5,0.825; stroke-dashoffset: 0; stroke: #b0b0b0; stroke-opacity: 0.5; stroke-width: 0.5"/>
     </g>
     <g id="line2d_25">
      <g>
       <use xlink:href="#m396c48e8b9" x="252.194758" y="318.047558" style="stroke: #000000; stroke-width: 0.6"/>
      </g>
     </g>
    </g>
    <g id="xtick_13">
     <g id="line2d_26">
      <path d="M 278.366919 318.047558 
L 278.366919 20.790769 
" clip-path="url(#p001e907244)" style="fill: none; stroke-dasharray: 0.5,0.825; stroke-dashoffset: 0; stroke: #b0b0b0; stroke-opacity: 0.5; stroke-width: 0.5"/>
     </g>
     <g id="line2d_27">
      <g>
       <use xlink:href="#m396c48e8b9" x="278.366919" y="318.047558" style="stroke: #000000; stroke-width: 0.6"/>
      </g>
     </g>
    </g>
    <g id="xtick_14">
     <g id="line2d_28">
      <path d="M 296.936363 318.047558 
L 296.936363 20.790769 
" clip-path="url(#p001e907244)" style="fill: none; stroke-dasharray: 0.5,0.825; stroke-dashoffset: 0; stroke: #b0b0b0; stroke-opacity: 0.5; stroke-width: 0.5"/>
     </g>
     <g id="line2d_29">
      <g>
       <use xlink:href="#m396c48e8b9" x="296.936363" y="318.047558" style="stroke: #000000; stroke-width: 0.6"/>
      </g>
     </g>
    </g>
    <g id="xtick_15">
     <g id="line2d_30">
      <path d="M 311.339943 318.047558 
L 311.339943 20.790769 
" clip-path="url(#p001e907244)" style="fill: none; stroke-dasharray: 0.5,0.825; stroke-dashoffset: 0; stroke: #b0b0b0; stroke-opacity: 0.5; stroke-width: 0.5"/>
     </g>
     <g id="line2d_31">
      <g>
       <use xlink:href="#m396c48e8b9" x="311.339943" y="318.047558" style="stroke: #000000; stroke-width: 0.6"/>
      </g>
     </g>
    </g>
    <g id="xtick_16">
     <g id="line2d_32">
      <path d="M 323.108524 318.047558 
L 323.108524 20.790769 
" clip-path="url(#p001e907244)" style="fill: none; stroke-dasharray: 0.5,0.825; stroke-dashoffset: 0; stroke: #b0b0b0; stroke-opacity: 0.5; stroke-width: 0.5"/>
     </g>
     <g id="line2d_33">
      <g>
       <use xlink:href="#m396c48e8b9" x="323.108524" y="318.047558" style="stroke: #000000; stroke-width: 0.6"/>
      </g>
     </g>
    </g>
    <g id="xtick_17">
     <g id="line2d_34">
      <path d="M 333.058718 318.047558 
L 333.058718 20.790769 
" clip-path="url(#p001e907244)" style="fill: none; stroke-dasharray: 0.5,0.825; stroke-dashoffset: 0; stroke: #b0b0b0; stroke-opacity: 0.5; stroke-width: 0.5"/>
     </g>
     <g id="line2d_35">
      <g>
       <use xlink:href="#m396c48e8b9" x="333.058718" y="318.047558" style="stroke: #000000; stroke-width: 0.6"/>
      </g>
     </g>
    </g>
    <g id="xtick_18">
     <g id="line2d_36">
      <path d="M 341.677968 318.047558 
L 341.677968 20.790769 
" clip-path="url(#p001e907244)" style="fill: none; stroke-dasharray: 0.5,0.825; stroke-dashoffset: 0; stroke: #b0b0b0; stroke-opacity: 0.5; stroke-width: 0.5"/>
     </g>
     <g id="line2d_37">
      <g>
       <use xlink:href="#m396c48e8b9" x="341.677968" y="318.047558" style="stroke: #000000; stroke-width: 0.6"/>
      </g>
     </g>
    </g>
    <g id="xtick_19">
     <g id="line2d_38">
      <path d="M 349.280685 318.047558 
L 349.280685 20.790769 
" clip-path="url(#p001e907244)" style="fill: none; stroke-dasharray: 0.5,0.825; stroke-dashoffset: 0; stroke: #b0b0b0; stroke-opacity: 0.5; stroke-width: 0.5"/>
     </g>
     <g id="line2d_39">
      <g>
       <use xlink:href="#m396c48e8b9" x="349.280685" y="318.047558" style="stroke: #000000; stroke-width: 0.6"/>
      </g>
     </g>
    </g>
    <g id="text_4">
     <!-- True $E_y$ ($\mathrm{\AA^3/atom}$) -->
     <g transform="translate(178.311615 340.508712) scale(0.067692 -0.067692)">
      <defs>
       <path id="Cmr10-54" d="M 1081 0 
L 1081 225 
Q 1403 225 1706 261 
Q 2009 297 2009 428 
L 2009 3944 
Q 2009 4081 1932 4114 
Q 1856 4147 1684 4147 
L 1416 4147 
Q 888 4147 666 3916 
Q 550 3800 500 3545 
Q 450 3291 416 2906 
L 231 2906 
L 353 4372 
L 4263 4372 
L 4384 2906 
L 4197 2906 
Q 4159 3319 4114 3561 
Q 4069 3803 3950 3916 
Q 3725 4147 3200 4147 
L 2931 4147 
Q 2816 4147 2752 4137 
Q 2688 4128 2647 4083 
Q 2606 4038 2606 3944 
L 2606 428 
Q 2606 297 2909 261 
Q 3213 225 3531 225 
L 3531 0 
L 1081 0 
z
" transform="scale(0.015625)"/>
       <path id="Cmr10-72" d="M 166 0 
L 166 225 
Q 384 225 525 259 
Q 666 294 666 428 
L 666 2175 
Q 666 2347 614 2423 
Q 563 2500 466 2517 
Q 369 2534 166 2534 
L 166 2759 
L 1081 2828 
L 1081 2203 
Q 1184 2481 1375 2654 
Q 1566 2828 1838 2828 
Q 2028 2828 2178 2715 
Q 2328 2603 2328 2419 
Q 2328 2303 2245 2217 
Q 2163 2131 2041 2131 
Q 1922 2131 1837 2215 
Q 1753 2300 1753 2419 
Q 1753 2591 1875 2663 
L 1838 2663 
Q 1578 2663 1414 2475 
Q 1250 2288 1181 2009 
Q 1113 1731 1113 1478 
L 1113 428 
Q 1113 225 1734 225 
L 1734 0 
L 166 0 
z
" transform="scale(0.015625)"/>
       <path id="Cmr10-75" d="M 691 763 
L 691 2175 
Q 691 2347 639 2423 
Q 588 2500 491 2517 
Q 394 2534 191 2534 
L 191 2759 
L 1159 2828 
L 1159 763 
Q 1159 513 1195 373 
Q 1231 234 1348 165 
Q 1466 97 1722 97 
Q 2066 97 2269 384 
Q 2472 672 2472 1038 
L 2472 2175 
Q 2472 2347 2419 2423 
Q 2366 2500 2270 2517 
Q 2175 2534 1972 2534 
L 1972 2759 
L 2938 2828 
L 2938 581 
Q 2938 413 2989 336 
Q 3041 259 3137 242 
Q 3234 225 3438 225 
L 3438 0 
L 2491 -72 
L 2491 469 
Q 2372 228 2159 78 
Q 1947 -72 1691 -72 
Q 1231 -72 961 123 
Q 691 319 691 763 
z
" transform="scale(0.015625)"/>
       <path id="Cmr10-65" d="M 1594 -72 
Q 1203 -72 876 133 
Q 550 338 364 680 
Q 178 1022 178 1403 
Q 178 1778 348 2115 
Q 519 2453 823 2661 
Q 1128 2869 1503 2869 
Q 1797 2869 2014 2770 
Q 2231 2672 2372 2497 
Q 2513 2322 2584 2084 
Q 2656 1847 2656 1563 
Q 2656 1478 2591 1478 
L 738 1478 
L 738 1409 
Q 738 878 952 497 
Q 1166 116 1650 116 
Q 1847 116 2014 203 
Q 2181 291 2304 447 
Q 2428 603 2472 781 
Q 2478 803 2495 820 
Q 2513 838 2534 838 
L 2591 838 
Q 2656 838 2656 756 
Q 2566 394 2266 161 
Q 1966 -72 1594 -72 
z
M 744 1638 
L 2203 1638 
Q 2203 1878 2136 2125 
Q 2069 2372 1912 2536 
Q 1756 2700 1503 2700 
Q 1141 2700 942 2361 
Q 744 2022 744 1638 
z
" transform="scale(0.015625)"/>
       <path id="Cmr10-20" transform="scale(0.015625)"/>
       <path id="Cmmi10-45" d="M 300 0 
Q 238 0 238 84 
Q 241 100 250 139 
Q 259 178 276 201 
Q 294 225 319 225 
Q 709 225 863 269 
Q 947 297 984 441 
L 1863 3956 
Q 1875 4019 1875 4044 
Q 1875 4113 1797 4122 
Q 1678 4147 1338 4147 
Q 1275 4147 1275 4231 
Q 1278 4247 1287 4286 
Q 1297 4325 1314 4348 
Q 1331 4372 1356 4372 
L 4825 4372 
Q 4891 4372 4891 4288 
L 4738 2963 
Q 4738 2947 4714 2926 
Q 4691 2906 4672 2906 
L 4616 2906 
Q 4550 2906 4550 2988 
Q 4588 3300 4588 3450 
Q 4588 3706 4500 3848 
Q 4413 3991 4267 4053 
Q 4122 4116 3945 4131 
Q 3769 4147 3481 4147 
L 2753 4147 
Q 2578 4147 2522 4117 
Q 2466 4088 2419 3928 
L 2034 2381 
L 2534 2381 
Q 2859 2381 3025 2426 
Q 3191 2472 3287 2615 
Q 3384 2759 3463 3072 
Q 3469 3094 3486 3111 
Q 3503 3128 3525 3128 
L 3584 3128 
Q 3647 3128 3647 3047 
L 3250 1466 
Q 3238 1409 3188 1409 
L 3128 1409 
Q 3066 1409 3066 1491 
Q 3128 1747 3128 1869 
Q 3128 2056 2959 2106 
Q 2791 2156 2509 2156 
L 1978 2156 
L 1544 416 
Q 1516 338 1516 275 
Q 1516 225 1734 225 
L 2509 225 
Q 2972 225 3259 297 
Q 3547 369 3736 526 
Q 3925 684 4062 928 
Q 4200 1172 4397 1638 
Q 4409 1678 4453 1678 
L 4513 1678 
Q 4538 1678 4556 1656 
Q 4575 1634 4575 1606 
Q 4575 1594 4569 1581 
L 3909 38 
Q 3897 0 3859 0 
L 300 0 
z
" transform="scale(0.015625)"/>
       <path id="Cmmi10-79" d="M 538 -916 
Q 672 -1147 1006 -1147 
Q 1309 -1147 1531 -934 
Q 1753 -722 1889 -420 
Q 2025 -119 2100 197 
Q 1816 -72 1484 -72 
Q 1231 -72 1053 15 
Q 875 103 776 276 
Q 678 450 678 697 
Q 678 906 734 1126 
Q 791 1347 892 1617 
Q 994 1888 1069 2088 
Q 1153 2322 1153 2472 
Q 1153 2663 1013 2663 
Q 759 2663 595 2402 
Q 431 2141 353 1819 
Q 341 1778 300 1778 
L 225 1778 
Q 172 1778 172 1838 
L 172 1856 
Q 275 2238 487 2533 
Q 700 2828 1025 2828 
Q 1253 2828 1411 2678 
Q 1569 2528 1569 2297 
Q 1569 2178 1516 2047 
Q 1488 1969 1388 1706 
Q 1288 1444 1234 1272 
Q 1181 1100 1147 934 
Q 1113 769 1113 603 
Q 1113 391 1203 244 
Q 1294 97 1491 97 
Q 1888 97 2203 581 
L 2688 2553 
Q 2709 2638 2787 2698 
Q 2866 2759 2956 2759 
Q 3034 2759 3092 2709 
Q 3150 2659 3150 2578 
Q 3150 2541 3144 2528 
L 2509 -19 
Q 2425 -347 2200 -647 
Q 1975 -947 1658 -1130 
Q 1341 -1313 997 -1313 
Q 831 -1313 668 -1248 
Q 506 -1184 406 -1056 
Q 306 -928 306 -756 
Q 306 -581 409 -453 
Q 513 -325 684 -325 
Q 788 -325 858 -389 
Q 928 -453 928 -556 
Q 928 -703 818 -812 
Q 709 -922 563 -922 
Q 556 -919 550 -917 
Q 544 -916 538 -916 
z
" transform="scale(0.015625)"/>
       <path id="Cmr10-28" d="M 1984 -1588 
Q 1628 -1306 1370 -942 
Q 1113 -578 948 -165 
Q 784 247 703 697 
Q 622 1147 622 1600 
Q 622 2059 703 2509 
Q 784 2959 951 3375 
Q 1119 3791 1378 4153 
Q 1638 4516 1984 4788 
Q 1984 4800 2016 4800 
L 2075 4800 
Q 2094 4800 2109 4783 
Q 2125 4766 2125 4744 
Q 2125 4716 2113 4703 
Q 1800 4397 1592 4047 
Q 1384 3697 1257 3301 
Q 1131 2906 1075 2482 
Q 1019 2059 1019 1600 
Q 1019 -434 2106 -1491 
Q 2125 -1509 2125 -1544 
Q 2125 -1559 2108 -1579 
Q 2091 -1600 2075 -1600 
L 2016 -1600 
Q 1984 -1600 1984 -1588 
z
" transform="scale(0.015625)"/>
       <path id="STIXGeneral-Regular-c5" d="M 2752 5961 
Q 2938 5773 2938 5510 
Q 2938 5248 2749 5062 
Q 2560 4877 2291 4877 
Q 2029 4877 1846 5062 
Q 1664 5248 1664 5517 
Q 1664 5779 1853 5964 
Q 2042 6150 2310 6150 
Q 2566 6150 2752 5961 
z
M 2720 5517 
Q 2720 5690 2595 5811 
Q 2470 5933 2291 5933 
Q 2125 5933 2003 5808 
Q 1882 5683 1882 5517 
Q 1882 5338 2003 5216 
Q 2125 5094 2291 5094 
Q 2470 5094 2595 5216 
Q 2720 5338 2720 5517 
z
M 4525 0 
L 2893 0 
L 2893 122 
Q 3149 122 3245 179 
Q 3334 224 3334 333 
Q 3334 499 3213 781 
L 2950 1382 
L 1274 1382 
L 979 653 
Q 922 506 922 384 
Q 922 237 1027 179 
Q 1133 122 1370 122 
L 1370 0 
L 96 0 
L 96 122 
Q 365 147 486 316 
Q 608 486 902 1190 
L 2221 4314 
L 2349 4314 
L 3923 710 
Q 4064 378 4176 262 
Q 4288 147 4525 122 
L 4525 0 
z
M 2861 1645 
L 2118 3405 
L 1382 1645 
L 2861 1645 
z
" transform="scale(0.015625)"/>
       <path id="Cmr10-33" d="M 609 494 
Q 759 275 1012 169 
Q 1266 63 1556 63 
Q 1928 63 2084 380 
Q 2241 697 2241 1100 
Q 2241 1281 2208 1462 
Q 2175 1644 2097 1800 
Q 2019 1956 1883 2050 
Q 1747 2144 1550 2144 
L 1125 2144 
Q 1069 2144 1069 2203 
L 1069 2259 
Q 1069 2309 1125 2309 
L 1478 2338 
Q 1703 2338 1851 2506 
Q 2000 2675 2069 2917 
Q 2138 3159 2138 3378 
Q 2138 3684 1994 3881 
Q 1850 4078 1556 4078 
Q 1313 4078 1091 3986 
Q 869 3894 738 3706 
Q 750 3709 759 3711 
Q 769 3713 781 3713 
Q 925 3713 1022 3613 
Q 1119 3513 1119 3372 
Q 1119 3234 1022 3134 
Q 925 3034 781 3034 
Q 641 3034 541 3134 
Q 441 3234 441 3372 
Q 441 3647 606 3850 
Q 772 4053 1033 4158 
Q 1294 4263 1556 4263 
Q 1750 4263 1965 4205 
Q 2181 4147 2356 4039 
Q 2531 3931 2642 3762 
Q 2753 3594 2753 3378 
Q 2753 3109 2633 2881 
Q 2513 2653 2303 2487 
Q 2094 2322 1844 2241 
Q 2122 2188 2372 2031 
Q 2622 1875 2773 1631 
Q 2925 1388 2925 1106 
Q 2925 753 2731 467 
Q 2538 181 2222 20 
Q 1906 -141 1556 -141 
Q 1256 -141 954 -26 
Q 653 88 461 316 
Q 269 544 269 863 
Q 269 1022 375 1128 
Q 481 1234 641 1234 
Q 744 1234 830 1186 
Q 916 1138 964 1050 
Q 1013 963 1013 863 
Q 1013 706 903 600 
Q 794 494 641 494 
L 609 494 
z
" transform="scale(0.015625)"/>
       <path id="Cmmi10-3d" d="M 359 -1472 
Q 359 -1453 366 -1447 
L 2591 4722 
Q 2603 4759 2634 4779 
Q 2666 4800 2706 4800 
Q 2763 4800 2798 4765 
Q 2834 4731 2834 4672 
L 2834 4647 
L 609 -1522 
Q 572 -1600 488 -1600 
Q 434 -1600 396 -1562 
Q 359 -1525 359 -1472 
z
" transform="scale(0.015625)"/>
       <path id="Cmr10-61" d="M 256 628 
Q 256 1009 556 1248 
Q 856 1488 1276 1586 
Q 1697 1684 2075 1684 
L 2075 1947 
Q 2075 2131 1994 2304 
Q 1913 2478 1759 2589 
Q 1606 2700 1422 2700 
Q 997 2700 775 2509 
Q 897 2509 976 2417 
Q 1056 2325 1056 2203 
Q 1056 2075 965 1984 
Q 875 1894 750 1894 
Q 622 1894 531 1984 
Q 441 2075 441 2203 
Q 441 2541 747 2705 
Q 1053 2869 1422 2869 
Q 1681 2869 1943 2758 
Q 2206 2647 2373 2440 
Q 2541 2234 2541 1959 
L 2541 519 
Q 2541 394 2594 289 
Q 2647 184 2759 184 
Q 2866 184 2917 290 
Q 2969 397 2969 519 
L 2969 928 
L 3156 928 
L 3156 519 
Q 3156 375 3081 245 
Q 3006 116 2879 39 
Q 2753 -38 2606 -38 
Q 2419 -38 2283 107 
Q 2147 253 2131 453 
Q 2013 213 1781 70 
Q 1550 -72 1288 -72 
Q 1044 -72 808 0 
Q 572 72 414 226 
Q 256 381 256 628 
z
M 775 628 
Q 775 403 940 250 
Q 1106 97 1331 97 
Q 1538 97 1706 200 
Q 1875 303 1975 481 
Q 2075 659 2075 856 
L 2075 1522 
Q 1784 1522 1479 1426 
Q 1175 1331 975 1128 
Q 775 925 775 628 
z
" transform="scale(0.015625)"/>
       <path id="Cmr10-74" d="M 653 769 
L 653 2534 
L 122 2534 
L 122 2700 
Q 541 2700 737 3090 
Q 934 3481 934 3938 
L 1119 3938 
L 1119 2759 
L 2022 2759 
L 2022 2534 
L 1119 2534 
L 1119 781 
Q 1119 516 1208 316 
Q 1297 116 1528 116 
Q 1747 116 1844 327 
Q 1941 538 1941 781 
L 1941 1159 
L 2125 1159 
L 2125 769 
Q 2125 569 2051 373 
Q 1978 178 1834 53 
Q 1691 -72 1484 -72 
Q 1100 -72 876 158 
Q 653 388 653 769 
z
" transform="scale(0.015625)"/>
       <path id="Cmr10-6f" d="M 1600 -72 
Q 1216 -72 887 123 
Q 559 319 368 647 
Q 178 975 178 1363 
Q 178 1656 283 1928 
Q 388 2200 583 2414 
Q 778 2628 1037 2748 
Q 1297 2869 1600 2869 
Q 1994 2869 2317 2661 
Q 2641 2453 2828 2104 
Q 3016 1756 3016 1363 
Q 3016 978 2825 648 
Q 2634 319 2307 123 
Q 1981 -72 1600 -72 
z
M 1600 116 
Q 2113 116 2284 487 
Q 2456 859 2456 1434 
Q 2456 1756 2422 1967 
Q 2388 2178 2272 2350 
Q 2200 2456 2089 2536 
Q 1978 2616 1854 2658 
Q 1731 2700 1600 2700 
Q 1400 2700 1220 2609 
Q 1041 2519 922 2350 
Q 803 2169 770 1951 
Q 738 1734 738 1434 
Q 738 1075 800 789 
Q 863 503 1052 309 
Q 1241 116 1600 116 
z
" transform="scale(0.015625)"/>
       <path id="Cmr10-6d" d="M 191 0 
L 191 225 
Q 409 225 550 259 
Q 691 294 691 428 
L 691 2175 
Q 691 2347 639 2423 
Q 588 2500 491 2517 
Q 394 2534 191 2534 
L 191 2759 
L 1119 2828 
L 1119 2203 
Q 1247 2478 1498 2653 
Q 1750 2828 2047 2828 
Q 2784 2828 2913 2228 
Q 3041 2497 3287 2662 
Q 3534 2828 3828 2828 
Q 4119 2828 4317 2734 
Q 4516 2641 4616 2448 
Q 4716 2256 4716 1966 
L 4716 428 
Q 4716 294 4858 259 
Q 5000 225 5216 225 
L 5216 0 
L 3750 0 
L 3750 225 
Q 3969 225 4109 259 
Q 4250 294 4250 428 
L 4250 1947 
Q 4250 2269 4159 2466 
Q 4069 2663 3788 2663 
Q 3419 2663 3178 2366 
Q 2938 2069 2938 1691 
L 2938 428 
Q 2938 294 3078 259 
Q 3219 225 3438 225 
L 3438 0 
L 1972 0 
L 1972 225 
Q 2191 225 2331 259 
Q 2472 294 2472 428 
L 2472 1947 
Q 2472 2259 2381 2461 
Q 2291 2663 2009 2663 
Q 1638 2663 1398 2366 
Q 1159 2069 1159 1691 
L 1159 428 
Q 1159 294 1300 259 
Q 1441 225 1656 225 
L 1656 0 
L 191 0 
z
" transform="scale(0.015625)"/>
       <path id="Cmr10-29" d="M 416 -1600 
Q 359 -1600 359 -1544 
Q 359 -1516 372 -1503 
Q 1466 -434 1466 1600 
Q 1466 3634 384 4691 
Q 359 4706 359 4744 
Q 359 4766 376 4783 
Q 394 4800 416 4800 
L 475 4800 
Q 494 4800 506 4788 
Q 966 4425 1272 3906 
Q 1578 3388 1720 2800 
Q 1863 2213 1863 1600 
Q 1863 1147 1786 708 
Q 1709 269 1542 -157 
Q 1375 -584 1119 -945 
Q 863 -1306 506 -1588 
Q 494 -1600 475 -1600 
L 416 -1600 
z
" transform="scale(0.015625)"/>
      </defs>
      <use xlink:href="#Cmr10-54" transform="translate(0 0.90625)"/>
      <use xlink:href="#Cmr10-72" transform="translate(72.216797 0.90625)"/>
      <use xlink:href="#Cmr10-75" transform="translate(111.328125 0.90625)"/>
      <use xlink:href="#Cmr10-65" transform="translate(166.845703 0.90625)"/>
      <use xlink:href="#Cmr10-20" transform="translate(211.230469 0.90625)"/>
      <use xlink:href="#Cmmi10-45" transform="translate(244.53125 0.90625)"/>
      <use xlink:href="#Cmmi10-79" transform="translate(318.310547 -16.1) scale(0.7)"/>
      <use xlink:href="#Cmr10-20" transform="translate(359.004297 0.90625)"/>
      <use xlink:href="#Cmr10-28" transform="translate(392.305078 0.90625)"/>
      <use xlink:href="#STIXGeneral-Regular-c5" transform="translate(431.123438 0.90625)"/>
      <use xlink:href="#Cmr10-33" transform="translate(507.890919 40.05625) scale(0.7)"/>
      <use xlink:href="#Cmmi10-3d" transform="translate(549.415919 0.90625)"/>
      <use xlink:href="#Cmr10-61" transform="translate(599.415919 0.90625)"/>
      <use xlink:href="#Cmr10-74" transform="translate(649.415919 0.90625)"/>
      <use xlink:href="#Cmr10-6f" transform="translate(688.234279 0.90625)"/>
      <use xlink:href="#Cmr10-6d" transform="translate(738.234279 0.90625)"/>
      <use xlink:href="#Cmr10-29" transform="translate(821.53506 0.90625)"/>
     </g>
    </g>
   </g>
   <g id="matplotlib.axis_2">
    <g id="ytick_1">
     <g id="line2d_40">
      <path d="M 58.824759 318.047558 
L 356.081548 318.047558 
" clip-path="url(#p001e907244)" style="fill: none; stroke-dasharray: 0.5,0.825; stroke-dashoffset: 0; stroke: #b0b0b0; stroke-opacity: 0.5; stroke-width: 0.5"/>
     </g>
     <g id="line2d_41">
      <defs>
       <path id="m5d72c45ce2" d="M 0 0 
L -3.5 0 
" style="stroke: #000000; stroke-width: 0.8"/>
      </defs>
      <g>
       <use xlink:href="#m5d72c45ce2" x="58.824759" y="318.047558" style="stroke: #000000; stroke-width: 0.8"/>
      </g>
     </g>
     <g id="text_5">
      <!-- $\mathdefault{10^{-1}}$ -->
      <g transform="translate(40.769759 319.961816) scale(0.055 -0.055)">
       <use xlink:href="#Cmr10-31" transform="translate(0 0.223438)"/>
       <use xlink:href="#Cmr10-30" transform="translate(50 0.223438)"/>
       <use xlink:href="#Cmsy10-a1" transform="translate(104.5675 39.373438) scale(0.7)"/>
       <use xlink:href="#Cmr10-31" transform="translate(158.947383 39.373438) scale(0.7)"/>
      </g>
     </g>
    </g>
    <g id="ytick_2">
     <g id="line2d_42">
      <path d="M 58.824759 169.419163 
L 356.081548 169.419163 
" clip-path="url(#p001e907244)" style="fill: none; stroke-dasharray: 0.5,0.825; stroke-dashoffset: 0; stroke: #b0b0b0; stroke-opacity: 0.5; stroke-width: 0.5"/>
     </g>
     <g id="line2d_43">
      <g>
       <use xlink:href="#m5d72c45ce2" x="58.824759" y="169.419163" style="stroke: #000000; stroke-width: 0.8"/>
      </g>
     </g>
     <g id="text_6">
      <!-- $\mathdefault{10^{0}}$ -->
      <g transform="translate(43.739759 171.333421) scale(0.055 -0.055)">
       <use xlink:href="#Cmr10-31" transform="translate(0 0.223438)"/>
       <use xlink:href="#Cmr10-30" transform="translate(50 0.223438)"/>
       <use xlink:href="#Cmr10-30" transform="translate(104.5675 39.373438) scale(0.7)"/>
      </g>
     </g>
    </g>
    <g id="ytick_3">
     <g id="line2d_44">
      <path d="M 58.824759 20.790769 
L 356.081548 20.790769 
" clip-path="url(#p001e907244)" style="fill: none; stroke-dasharray: 0.5,0.825; stroke-dashoffset: 0; stroke: #b0b0b0; stroke-opacity: 0.5; stroke-width: 0.5"/>
     </g>
     <g id="line2d_45">
      <g>
       <use xlink:href="#m5d72c45ce2" x="58.824759" y="20.790769" style="stroke: #000000; stroke-width: 0.8"/>
      </g>
     </g>
     <g id="text_7">
      <!-- $\mathdefault{10^{1}}$ -->
      <g transform="translate(43.739759 22.705027) scale(0.055 -0.055)">
       <use xlink:href="#Cmr10-31" transform="translate(0 0.223438)"/>
       <use xlink:href="#Cmr10-30" transform="translate(50 0.223438)"/>
       <use xlink:href="#Cmr10-31" transform="translate(104.5675 39.373438) scale(0.7)"/>
      </g>
     </g>
    </g>
    <g id="ytick_4">
     <g id="line2d_46">
      <path d="M 58.824759 273.305953 
L 356.081548 273.305953 
" clip-path="url(#p001e907244)" style="fill: none; stroke-dasharray: 0.5,0.825; stroke-dashoffset: 0; stroke: #b0b0b0; stroke-opacity: 0.5; stroke-width: 0.5"/>
     </g>
     <g id="line2d_47">
      <defs>
       <path id="mb4c160a480" d="M 0 0 
L -2 0 
" style="stroke: #000000; stroke-width: 0.6"/>
      </defs>
      <g>
       <use xlink:href="#mb4c160a480" x="58.824759" y="273.305953" style="stroke: #000000; stroke-width: 0.6"/>
      </g>
     </g>
    </g>
    <g id="ytick_5">
     <g id="line2d_48">
      <path d="M 58.824759 247.133792 
L 356.081548 247.133792 
" clip-path="url(#p001e907244)" style="fill: none; stroke-dasharray: 0.5,0.825; stroke-dashoffset: 0; stroke: #b0b0b0; stroke-opacity: 0.5; stroke-width: 0.5"/>
     </g>
     <g id="line2d_49">
      <g>
       <use xlink:href="#mb4c160a480" x="58.824759" y="247.133792" style="stroke: #000000; stroke-width: 0.6"/>
      </g>
     </g>
    </g>
    <g id="ytick_6">
     <g id="line2d_50">
      <path d="M 58.824759 228.564348 
L 356.081548 228.564348 
" clip-path="url(#p001e907244)" style="fill: none; stroke-dasharray: 0.5,0.825; stroke-dashoffset: 0; stroke: #b0b0b0; stroke-opacity: 0.5; stroke-width: 0.5"/>
     </g>
     <g id="line2d_51">
      <g>
       <use xlink:href="#mb4c160a480" x="58.824759" y="228.564348" style="stroke: #000000; stroke-width: 0.6"/>
      </g>
     </g>
    </g>
    <g id="ytick_7">
     <g id="line2d_52">
      <path d="M 58.824759 214.160768 
L 356.081548 214.160768 
" clip-path="url(#p001e907244)" style="fill: none; stroke-dasharray: 0.5,0.825; stroke-dashoffset: 0; stroke: #b0b0b0; stroke-opacity: 0.5; stroke-width: 0.5"/>
     </g>
     <g id="line2d_53">
      <g>
       <use xlink:href="#mb4c160a480" x="58.824759" y="214.160768" style="stroke: #000000; stroke-width: 0.6"/>
      </g>
     </g>
    </g>
    <g id="ytick_8">
     <g id="line2d_54">
      <path d="M 58.824759 202.392187 
L 356.081548 202.392187 
" clip-path="url(#p001e907244)" style="fill: none; stroke-dasharray: 0.5,0.825; stroke-dashoffset: 0; stroke: #b0b0b0; stroke-opacity: 0.5; stroke-width: 0.5"/>
     </g>
     <g id="line2d_55">
      <g>
       <use xlink:href="#mb4c160a480" x="58.824759" y="202.392187" style="stroke: #000000; stroke-width: 0.6"/>
      </g>
     </g>
    </g>
    <g id="ytick_9">
     <g id="line2d_56">
      <path d="M 58.824759 192.441993 
L 356.081548 192.441993 
" clip-path="url(#p001e907244)" style="fill: none; stroke-dasharray: 0.5,0.825; stroke-dashoffset: 0; stroke: #b0b0b0; stroke-opacity: 0.5; stroke-width: 0.5"/>
     </g>
     <g id="line2d_57">
      <g>
       <use xlink:href="#mb4c160a480" x="58.824759" y="192.441993" style="stroke: #000000; stroke-width: 0.6"/>
      </g>
     </g>
    </g>
    <g id="ytick_10">
     <g id="line2d_58">
      <path d="M 58.824759 183.822743 
L 356.081548 183.822743 
" clip-path="url(#p001e907244)" style="fill: none; stroke-dasharray: 0.5,0.825; stroke-dashoffset: 0; stroke: #b0b0b0; stroke-opacity: 0.5; stroke-width: 0.5"/>
     </g>
     <g id="line2d_59">
      <g>
       <use xlink:href="#mb4c160a480" x="58.824759" y="183.822743" style="stroke: #000000; stroke-width: 0.6"/>
      </g>
     </g>
    </g>
    <g id="ytick_11">
     <g id="line2d_60">
      <path d="M 58.824759 176.220026 
L 356.081548 176.220026 
" clip-path="url(#p001e907244)" style="fill: none; stroke-dasharray: 0.5,0.825; stroke-dashoffset: 0; stroke: #b0b0b0; stroke-opacity: 0.5; stroke-width: 0.5"/>
     </g>
     <g id="line2d_61">
      <g>
       <use xlink:href="#mb4c160a480" x="58.824759" y="176.220026" style="stroke: #000000; stroke-width: 0.6"/>
      </g>
     </g>
    </g>
    <g id="ytick_12">
     <g id="line2d_62">
      <path d="M 58.824759 124.677559 
L 356.081548 124.677559 
" clip-path="url(#p001e907244)" style="fill: none; stroke-dasharray: 0.5,0.825; stroke-dashoffset: 0; stroke: #b0b0b0; stroke-opacity: 0.5; stroke-width: 0.5"/>
     </g>
     <g id="line2d_63">
      <g>
       <use xlink:href="#mb4c160a480" x="58.824759" y="124.677559" style="stroke: #000000; stroke-width: 0.6"/>
      </g>
     </g>
    </g>
    <g id="ytick_13">
     <g id="line2d_64">
      <path d="M 58.824759 98.505398 
L 356.081548 98.505398 
" clip-path="url(#p001e907244)" style="fill: none; stroke-dasharray: 0.5,0.825; stroke-dashoffset: 0; stroke: #b0b0b0; stroke-opacity: 0.5; stroke-width: 0.5"/>
     </g>
     <g id="line2d_65">
      <g>
       <use xlink:href="#mb4c160a480" x="58.824759" y="98.505398" style="stroke: #000000; stroke-width: 0.6"/>
      </g>
     </g>
    </g>
    <g id="ytick_14">
     <g id="line2d_66">
      <path d="M 58.824759 79.935954 
L 356.081548 79.935954 
" clip-path="url(#p001e907244)" style="fill: none; stroke-dasharray: 0.5,0.825; stroke-dashoffset: 0; stroke: #b0b0b0; stroke-opacity: 0.5; stroke-width: 0.5"/>
     </g>
     <g id="line2d_67">
      <g>
       <use xlink:href="#mb4c160a480" x="58.824759" y="79.935954" style="stroke: #000000; stroke-width: 0.6"/>
      </g>
     </g>
    </g>
    <g id="ytick_15">
     <g id="line2d_68">
      <path d="M 58.824759 65.532374 
L 356.081548 65.532374 
" clip-path="url(#p001e907244)" style="fill: none; stroke-dasharray: 0.5,0.825; stroke-dashoffset: 0; stroke: #b0b0b0; stroke-opacity: 0.5; stroke-width: 0.5"/>
     </g>
     <g id="line2d_69">
      <g>
       <use xlink:href="#mb4c160a480" x="58.824759" y="65.532374" style="stroke: #000000; stroke-width: 0.6"/>
      </g>
     </g>
    </g>
    <g id="ytick_16">
     <g id="line2d_70">
      <path d="M 58.824759 53.763793 
L 356.081548 53.763793 
" clip-path="url(#p001e907244)" style="fill: none; stroke-dasharray: 0.5,0.825; stroke-dashoffset: 0; stroke: #b0b0b0; stroke-opacity: 0.5; stroke-width: 0.5"/>
     </g>
     <g id="line2d_71">
      <g>
       <use xlink:href="#mb4c160a480" x="58.824759" y="53.763793" style="stroke: #000000; stroke-width: 0.6"/>
      </g>
     </g>
    </g>
    <g id="ytick_17">
     <g id="line2d_72">
      <path d="M 58.824759 43.813599 
L 356.081548 43.813599 
" clip-path="url(#p001e907244)" style="fill: none; stroke-dasharray: 0.5,0.825; stroke-dashoffset: 0; stroke: #b0b0b0; stroke-opacity: 0.5; stroke-width: 0.5"/>
     </g>
     <g id="line2d_73">
      <g>
       <use xlink:href="#mb4c160a480" x="58.824759" y="43.813599" style="stroke: #000000; stroke-width: 0.6"/>
      </g>
     </g>
    </g>
    <g id="ytick_18">
     <g id="line2d_74">
      <path d="M 58.824759 35.194349 
L 356.081548 35.194349 
" clip-path="url(#p001e907244)" style="fill: none; stroke-dasharray: 0.5,0.825; stroke-dashoffset: 0; stroke: #b0b0b0; stroke-opacity: 0.5; stroke-width: 0.5"/>
     </g>
     <g id="line2d_75">
      <g>
       <use xlink:href="#mb4c160a480" x="58.824759" y="35.194349" style="stroke: #000000; stroke-width: 0.6"/>
      </g>
     </g>
    </g>
    <g id="ytick_19">
     <g id="line2d_76">
      <path d="M 58.824759 27.591632 
L 356.081548 27.591632 
" clip-path="url(#p001e907244)" style="fill: none; stroke-dasharray: 0.5,0.825; stroke-dashoffset: 0; stroke: #b0b0b0; stroke-opacity: 0.5; stroke-width: 0.5"/>
     </g>
     <g id="line2d_77">
      <g>
       <use xlink:href="#mb4c160a480" x="58.824759" y="27.591632" style="stroke: #000000; stroke-width: 0.6"/>
      </g>
     </g>
    </g>
    <g id="text_8">
     <!-- Predicted $E_y$ ($\mathrm{\AA^3/atom}$) -->
     <g transform="translate(34.603605 205.53301) rotate(-90) scale(0.067692 -0.067692)">
      <defs>
       <path id="Cmr10-50" d="M 213 0 
L 213 225 
Q 872 225 872 428 
L 872 3944 
Q 872 4147 213 4147 
L 213 4372 
L 2491 4372 
Q 2841 4372 3191 4228 
Q 3541 4084 3767 3809 
Q 3994 3534 3994 3169 
Q 3994 2813 3766 2544 
Q 3538 2275 3191 2136 
Q 2844 1997 2491 1997 
L 1466 1997 
L 1466 428 
Q 1466 225 2125 225 
L 2125 0 
L 213 0 
z
M 1447 2188 
L 2316 2188 
Q 2669 2188 2887 2289 
Q 3106 2391 3207 2605 
Q 3309 2819 3309 3169 
Q 3309 3691 3079 3919 
Q 2850 4147 2316 4147 
L 1772 4147 
Q 1656 4147 1592 4137 
Q 1528 4128 1487 4083 
Q 1447 4038 1447 3944 
L 1447 2188 
z
" transform="scale(0.015625)"/>
       <path id="Cmr10-64" d="M 1563 -72 
Q 1184 -72 871 133 
Q 559 338 386 672 
Q 213 1006 213 1381 
Q 213 1769 402 2101 
Q 591 2434 916 2631 
Q 1241 2828 1631 2828 
Q 1866 2828 2075 2729 
Q 2284 2631 2438 2456 
L 2438 3788 
Q 2438 3959 2386 4036 
Q 2334 4113 2239 4130 
Q 2144 4147 1941 4147 
L 1941 4372 
L 2888 4441 
L 2888 581 
Q 2888 413 2939 336 
Q 2991 259 3086 242 
Q 3181 225 3384 225 
L 3384 0 
L 2419 -72 
L 2419 331 
Q 2253 141 2025 34 
Q 1797 -72 1563 -72 
z
M 909 556 
Q 1019 347 1201 222 
Q 1384 97 1600 97 
Q 1866 97 2087 250 
Q 2309 403 2419 647 
L 2419 2181 
Q 2344 2322 2230 2433 
Q 2116 2544 1973 2603 
Q 1831 2663 1672 2663 
Q 1338 2663 1134 2473 
Q 931 2284 850 1990 
Q 769 1697 769 1375 
Q 769 1119 795 928 
Q 822 738 909 556 
z
" transform="scale(0.015625)"/>
       <path id="Cmr10-69" d="M 197 0 
L 197 225 
Q 416 225 556 259 
Q 697 294 697 428 
L 697 2175 
Q 697 2422 601 2478 
Q 506 2534 225 2534 
L 225 2759 
L 1147 2828 
L 1147 428 
Q 1147 294 1269 259 
Q 1391 225 1594 225 
L 1594 0 
L 197 0 
z
M 469 3928 
Q 469 4069 575 4175 
Q 681 4281 819 4281 
Q 909 4281 993 4234 
Q 1078 4188 1125 4103 
Q 1172 4019 1172 3928 
Q 1172 3791 1065 3684 
Q 959 3578 819 3578 
Q 681 3578 575 3684 
Q 469 3791 469 3928 
z
" transform="scale(0.015625)"/>
       <path id="Cmr10-63" d="M 1594 -72 
Q 1206 -72 890 129 
Q 575 331 394 667 
Q 213 1003 213 1381 
Q 213 1759 392 2106 
Q 572 2453 889 2661 
Q 1206 2869 1594 2869 
Q 1969 2869 2276 2722 
Q 2584 2575 2584 2241 
Q 2584 2116 2495 2023 
Q 2406 1931 2278 1931 
Q 2150 1931 2061 2023 
Q 1972 2116 1972 2241 
Q 1972 2353 2044 2436 
Q 2116 2519 2222 2541 
Q 2000 2681 1600 2681 
Q 1294 2681 1106 2478 
Q 919 2275 844 1975 
Q 769 1675 769 1381 
Q 769 1072 861 783 
Q 953 494 1158 305 
Q 1363 116 1672 116 
Q 1975 116 2187 302 
Q 2400 488 2478 788 
Q 2478 825 2528 825 
L 2606 825 
Q 2625 825 2640 808 
Q 2656 791 2656 769 
L 2656 750 
Q 2559 372 2271 150 
Q 1984 -72 1594 -72 
z
" transform="scale(0.015625)"/>
      </defs>
      <use xlink:href="#Cmr10-50" transform="translate(0 0.90625)"/>
      <use xlink:href="#Cmr10-72" transform="translate(68.017578 0.90625)"/>
      <use xlink:href="#Cmr10-65" transform="translate(107.128906 0.90625)"/>
      <use xlink:href="#Cmr10-64" transform="translate(151.513672 0.90625)"/>
      <use xlink:href="#Cmr10-69" transform="translate(207.03125 0.90625)"/>
      <use xlink:href="#Cmr10-63" transform="translate(234.716797 0.90625)"/>
      <use xlink:href="#Cmr10-74" transform="translate(279.101562 0.90625)"/>
      <use xlink:href="#Cmr10-65" transform="translate(317.919922 0.90625)"/>
      <use xlink:href="#Cmr10-64" transform="translate(362.304688 0.90625)"/>
      <use xlink:href="#Cmr10-20" transform="translate(417.822266 0.90625)"/>
      <use xlink:href="#Cmmi10-45" transform="translate(451.123047 0.90625)"/>
      <use xlink:href="#Cmmi10-79" transform="translate(524.902344 -16.1) scale(0.7)"/>
      <use xlink:href="#Cmr10-20" transform="translate(565.596094 0.90625)"/>
      <use xlink:href="#Cmr10-28" transform="translate(598.896875 0.90625)"/>
      <use xlink:href="#STIXGeneral-Regular-c5" transform="translate(637.715234 0.90625)"/>
      <use xlink:href="#Cmr10-33" transform="translate(714.482716 40.05625) scale(0.7)"/>
      <use xlink:href="#Cmmi10-3d" transform="translate(756.007716 0.90625)"/>
      <use xlink:href="#Cmr10-61" transform="translate(806.007716 0.90625)"/>
      <use xlink:href="#Cmr10-74" transform="translate(856.007716 0.90625)"/>
      <use xlink:href="#Cmr10-6f" transform="translate(894.826075 0.90625)"/>
      <use xlink:href="#Cmr10-6d" transform="translate(944.826075 0.90625)"/>
      <use xlink:href="#Cmr10-29" transform="translate(1028.126857 0.90625)"/>
     </g>
    </g>
   </g>
   <g id="LineCollection_1">
    <path d="M 213.015794 197.737212 
L 213.015794 67.144529 
" clip-path="url(#p001e907244)" style="fill: none; stroke: #1f77b4; stroke-opacity: 0.9; stroke-width: 0.7"/>
    <path d="M 301.454265 177.79178 
L 301.454265 56.530568 
" clip-path="url(#p001e907244)" style="fill: none; stroke: #1f77b4; stroke-opacity: 0.9; stroke-width: 0.7"/>
    <path d="M 63.192023 241.423076 
L 63.192023 112.517445 
" clip-path="url(#p001e907244)" style="fill: none; stroke: #1f77b4; stroke-opacity: 0.9; stroke-width: 0.7"/>
    <path d="M 243.205602 195.291907 
L 243.205602 70.894704 
" clip-path="url(#p001e907244)" style="fill: none; stroke: #1f77b4; stroke-opacity: 0.9; stroke-width: 0.7"/>
    <path d="M 296.450425 156.922015 
L 296.450425 38.180882 
" clip-path="url(#p001e907244)" style="fill: none; stroke: #1f77b4; stroke-opacity: 0.9; stroke-width: 0.7"/>
    <path d="M 274.372955 159.727495 
L 274.372955 37.414255 
" clip-path="url(#p001e907244)" style="fill: none; stroke: #1f77b4; stroke-opacity: 0.9; stroke-width: 0.7"/>
   </g>
   <g id="line2d_78">
    <defs>
     <path id="m33f34e3cd3" d="M 2 0 
L -2 -0 
" style="stroke: #1f77b4; stroke-opacity: 0.9"/>
    </defs>
    <g clip-path="url(#p001e907244)">
     <use xlink:href="#m33f34e3cd3" x="213.015794" y="197.737212" style="fill: #1f77b4; fill-opacity: 0.9; stroke: #1f77b4; stroke-opacity: 0.9"/>
     <use xlink:href="#m33f34e3cd3" x="301.454265" y="177.79178" style="fill: #1f77b4; fill-opacity: 0.9; stroke: #1f77b4; stroke-opacity: 0.9"/>
     <use xlink:href="#m33f34e3cd3" x="63.192023" y="241.423076" style="fill: #1f77b4; fill-opacity: 0.9; stroke: #1f77b4; stroke-opacity: 0.9"/>
     <use xlink:href="#m33f34e3cd3" x="243.205602" y="195.291907" style="fill: #1f77b4; fill-opacity: 0.9; stroke: #1f77b4; stroke-opacity: 0.9"/>
     <use xlink:href="#m33f34e3cd3" x="296.450425" y="156.922015" style="fill: #1f77b4; fill-opacity: 0.9; stroke: #1f77b4; stroke-opacity: 0.9"/>
     <use xlink:href="#m33f34e3cd3" x="274.372955" y="159.727495" style="fill: #1f77b4; fill-opacity: 0.9; stroke: #1f77b4; stroke-opacity: 0.9"/>
    </g>
   </g>
   <g id="line2d_79">
    <g clip-path="url(#p001e907244)">
     <use xlink:href="#m33f34e3cd3" x="213.015794" y="67.144529" style="fill: #1f77b4; fill-opacity: 0.9; stroke: #1f77b4; stroke-opacity: 0.9"/>
     <use xlink:href="#m33f34e3cd3" x="301.454265" y="56.530568" style="fill: #1f77b4; fill-opacity: 0.9; stroke: #1f77b4; stroke-opacity: 0.9"/>
     <use xlink:href="#m33f34e3cd3" x="63.192023" y="112.517445" style="fill: #1f77b4; fill-opacity: 0.9; stroke: #1f77b4; stroke-opacity: 0.9"/>
     <use xlink:href="#m33f34e3cd3" x="243.205602" y="70.894704" style="fill: #1f77b4; fill-opacity: 0.9; stroke: #1f77b4; stroke-opacity: 0.9"/>
     <use xlink:href="#m33f34e3cd3" x="296.450425" y="38.180882" style="fill: #1f77b4; fill-opacity: 0.9; stroke: #1f77b4; stroke-opacity: 0.9"/>
     <use xlink:href="#m33f34e3cd3" x="274.372955" y="37.414255" style="fill: #1f77b4; fill-opacity: 0.9; stroke: #1f77b4; stroke-opacity: 0.9"/>
    </g>
   </g>
   <g id="LineCollection_2">
    <path d="M 245.393896 198.602462 
L 245.393896 65.615875 
" clip-path="url(#p001e907244)" style="fill: none; stroke: #d62728; stroke-opacity: 0.9; stroke-width: 0.7"/>
    <path d="M 288.501274 198.602462 
L 288.501274 65.615875 
" clip-path="url(#p001e907244)" style="fill: none; stroke: #d62728; stroke-opacity: 0.9; stroke-width: 0.7"/>
    <path d="M 329.064754 205.00773 
L 329.064754 69.683255 
" clip-path="url(#p001e907244)" style="fill: none; stroke: #d62728; stroke-opacity: 0.9; stroke-width: 0.7"/>
    <path d="M 293.964296 169.57938 
L 293.964296 49.018097 
" clip-path="url(#p001e907244)" style="fill: none; stroke: #d62728; stroke-opacity: 0.9; stroke-width: 0.7"/>
    <path d="M 280.898557 161.205083 
L 280.898557 39.730298 
" clip-path="url(#p001e907244)" style="fill: none; stroke: #d62728; stroke-opacity: 0.9; stroke-width: 0.7"/>
    <path d="M 281.924787 172.489091 
L 281.924787 49.364095 
" clip-path="url(#p001e907244)" style="fill: none; stroke: #d62728; stroke-opacity: 0.9; stroke-width: 0.7"/>
   </g>
   <g id="line2d_80">
    <defs>
     <path id="maa6eea618a" d="M 2 0 
L -2 -0 
" style="stroke: #d62728; stroke-opacity: 0.9"/>
    </defs>
    <g clip-path="url(#p001e907244)">
     <use xlink:href="#maa6eea618a" x="245.393896" y="198.602462" style="fill: #d62728; fill-opacity: 0.9; stroke: #d62728; stroke-opacity: 0.9"/>
     <use xlink:href="#maa6eea618a" x="288.501274" y="198.602462" style="fill: #d62728; fill-opacity: 0.9; stroke: #d62728; stroke-opacity: 0.9"/>
     <use xlink:href="#maa6eea618a" x="329.064754" y="205.00773" style="fill: #d62728; fill-opacity: 0.9; stroke: #d62728; stroke-opacity: 0.9"/>
     <use xlink:href="#maa6eea618a" x="293.964296" y="169.57938" style="fill: #d62728; fill-opacity: 0.9; stroke: #d62728; stroke-opacity: 0.9"/>
     <use xlink:href="#maa6eea618a" x="280.898557" y="161.205083" style="fill: #d62728; fill-opacity: 0.9; stroke: #d62728; stroke-opacity: 0.9"/>
     <use xlink:href="#maa6eea618a" x="281.924787" y="172.489091" style="fill: #d62728; fill-opacity: 0.9; stroke: #d62728; stroke-opacity: 0.9"/>
    </g>
   </g>
   <g id="line2d_81">
    <g clip-path="url(#p001e907244)">
     <use xlink:href="#maa6eea618a" x="245.393896" y="65.615875" style="fill: #d62728; fill-opacity: 0.9; stroke: #d62728; stroke-opacity: 0.9"/>
     <use xlink:href="#maa6eea618a" x="288.501274" y="65.615875" style="fill: #d62728; fill-opacity: 0.9; stroke: #d62728; stroke-opacity: 0.9"/>
     <use xlink:href="#maa6eea618a" x="329.064754" y="69.683255" style="fill: #d62728; fill-opacity: 0.9; stroke: #d62728; stroke-opacity: 0.9"/>
     <use xlink:href="#maa6eea618a" x="293.964296" y="49.018097" style="fill: #d62728; fill-opacity: 0.9; stroke: #d62728; stroke-opacity: 0.9"/>
     <use xlink:href="#maa6eea618a" x="280.898557" y="39.730298" style="fill: #d62728; fill-opacity: 0.9; stroke: #d62728; stroke-opacity: 0.9"/>
     <use xlink:href="#maa6eea618a" x="281.924787" y="49.364095" style="fill: #d62728; fill-opacity: 0.9; stroke: #d62728; stroke-opacity: 0.9"/>
    </g>
   </g>
   <g id="LineCollection_3">
    <path d="M 303.088491 169.313494 
L 303.088491 40.65954 
" clip-path="url(#p001e907244)" style="fill: none; stroke: #2ca02c; stroke-opacity: 0.9; stroke-width: 0.7"/>
    <path d="M 102.91763 243.793275 
L 102.91763 114.436807 
" clip-path="url(#p001e907244)" style="fill: none; stroke: #2ca02c; stroke-opacity: 0.9; stroke-width: 0.7"/>
    <path d="M 227.300827 199.341791 
L 227.300827 68.016012 
" clip-path="url(#p001e907244)" style="fill: none; stroke: #2ca02c; stroke-opacity: 0.9; stroke-width: 0.7"/>
    <path d="M 285.873938 168.667373 
L 285.873938 46.645246 
" clip-path="url(#p001e907244)" style="fill: none; stroke: #2ca02c; stroke-opacity: 0.9; stroke-width: 0.7"/>
    <path d="M 273.682591 211.201811 
L 273.682591 93.029646 
" clip-path="url(#p001e907244)" style="fill: none; stroke: #2ca02c; stroke-opacity: 0.9; stroke-width: 0.7"/>
    <path d="M 276.400823 182.4528 
L 276.400823 68.442963 
" clip-path="url(#p001e907244)" style="fill: none; stroke: #2ca02c; stroke-opacity: 0.9; stroke-width: 0.7"/>
   </g>
   <g id="line2d_82">
    <defs>
     <path id="m3481cd2b3f" d="M 2 0 
L -2 -0 
" style="stroke: #2ca02c; stroke-opacity: 0.9"/>
    </defs>
    <g clip-path="url(#p001e907244)">
     <use xlink:href="#m3481cd2b3f" x="303.088491" y="169.313494" style="fill: #2ca02c; fill-opacity: 0.9; stroke: #2ca02c; stroke-opacity: 0.9"/>
     <use xlink:href="#m3481cd2b3f" x="102.91763" y="243.793275" style="fill: #2ca02c; fill-opacity: 0.9; stroke: #2ca02c; stroke-opacity: 0.9"/>
     <use xlink:href="#m3481cd2b3f" x="227.300827" y="199.341791" style="fill: #2ca02c; fill-opacity: 0.9; stroke: #2ca02c; stroke-opacity: 0.9"/>
     <use xlink:href="#m3481cd2b3f" x="285.873938" y="168.667373" style="fill: #2ca02c; fill-opacity: 0.9; stroke: #2ca02c; stroke-opacity: 0.9"/>
     <use xlink:href="#m3481cd2b3f" x="273.682591" y="211.201811" style="fill: #2ca02c; fill-opacity: 0.9; stroke: #2ca02c; stroke-opacity: 0.9"/>
     <use xlink:href="#m3481cd2b3f" x="276.400823" y="182.4528" style="fill: #2ca02c; fill-opacity: 0.9; stroke: #2ca02c; stroke-opacity: 0.9"/>
    </g>
   </g>
   <g id="line2d_83">
    <g clip-path="url(#p001e907244)">
     <use xlink:href="#m3481cd2b3f" x="303.088491" y="40.65954" style="fill: #2ca02c; fill-opacity: 0.9; stroke: #2ca02c; stroke-opacity: 0.9"/>
     <use xlink:href="#m3481cd2b3f" x="102.91763" y="114.436807" style="fill: #2ca02c; fill-opacity: 0.9; stroke: #2ca02c; stroke-opacity: 0.9"/>
     <use xlink:href="#m3481cd2b3f" x="227.300827" y="68.016012" style="fill: #2ca02c; fill-opacity: 0.9; stroke: #2ca02c; stroke-opacity: 0.9"/>
     <use xlink:href="#m3481cd2b3f" x="285.873938" y="46.645246" style="fill: #2ca02c; fill-opacity: 0.9; stroke: #2ca02c; stroke-opacity: 0.9"/>
     <use xlink:href="#m3481cd2b3f" x="273.682591" y="93.029646" style="fill: #2ca02c; fill-opacity: 0.9; stroke: #2ca02c; stroke-opacity: 0.9"/>
     <use xlink:href="#m3481cd2b3f" x="276.400823" y="68.442963" style="fill: #2ca02c; fill-opacity: 0.9; stroke: #2ca02c; stroke-opacity: 0.9"/>
    </g>
   </g>
   <g id="LineCollection_4">
    <path d="M 276.178625 197.003818 
L 276.178625 63.517443 
" clip-path="url(#p001e907244)" style="fill: none; stroke: #9467bd; stroke-opacity: 0.9; stroke-width: 0.7"/>
    <path d="M 236.156952 195.023804 
L 236.156952 66.917008 
" clip-path="url(#p001e907244)" style="fill: none; stroke: #9467bd; stroke-opacity: 0.9; stroke-width: 0.7"/>
    <path d="M 311.982222 187.558333 
L 311.982222 53.730272 
" clip-path="url(#p001e907244)" style="fill: none; stroke: #9467bd; stroke-opacity: 0.9; stroke-width: 0.7"/>
    <path d="M 229.63135 181.143748 
L 229.63135 60.784186 
" clip-path="url(#p001e907244)" style="fill: none; stroke: #9467bd; stroke-opacity: 0.9; stroke-width: 0.7"/>
    <path d="M 280.065662 183.84021 
L 280.065662 69.15565 
" clip-path="url(#p001e907244)" style="fill: none; stroke: #9467bd; stroke-opacity: 0.9; stroke-width: 0.7"/>
    <path d="M 266.598338 164.102201 
L 266.598338 39.52728 
" clip-path="url(#p001e907244)" style="fill: none; stroke: #9467bd; stroke-opacity: 0.9; stroke-width: 0.7"/>
   </g>
   <g id="line2d_84">
    <defs>
     <path id="m2a806ac34c" d="M 2 0 
L -2 -0 
" style="stroke: #9467bd; stroke-opacity: 0.9"/>
    </defs>
    <g clip-path="url(#p001e907244)">
     <use xlink:href="#m2a806ac34c" x="276.178625" y="197.003818" style="fill: #9467bd; fill-opacity: 0.9; stroke: #9467bd; stroke-opacity: 0.9"/>
     <use xlink:href="#m2a806ac34c" x="236.156952" y="195.023804" style="fill: #9467bd; fill-opacity: 0.9; stroke: #9467bd; stroke-opacity: 0.9"/>
     <use xlink:href="#m2a806ac34c" x="311.982222" y="187.558333" style="fill: #9467bd; fill-opacity: 0.9; stroke: #9467bd; stroke-opacity: 0.9"/>
     <use xlink:href="#m2a806ac34c" x="229.63135" y="181.143748" style="fill: #9467bd; fill-opacity: 0.9; stroke: #9467bd; stroke-opacity: 0.9"/>
     <use xlink:href="#m2a806ac34c" x="280.065662" y="183.84021" style="fill: #9467bd; fill-opacity: 0.9; stroke: #9467bd; stroke-opacity: 0.9"/>
     <use xlink:href="#m2a806ac34c" x="266.598338" y="164.102201" style="fill: #9467bd; fill-opacity: 0.9; stroke: #9467bd; stroke-opacity: 0.9"/>
    </g>
   </g>
   <g id="line2d_85">
    <g clip-path="url(#p001e907244)">
     <use xlink:href="#m2a806ac34c" x="276.178625" y="63.517443" style="fill: #9467bd; fill-opacity: 0.9; stroke: #9467bd; stroke-opacity: 0.9"/>
     <use xlink:href="#m2a806ac34c" x="236.156952" y="66.917008" style="fill: #9467bd; fill-opacity: 0.9; stroke: #9467bd; stroke-opacity: 0.9"/>
     <use xlink:href="#m2a806ac34c" x="311.982222" y="53.730272" style="fill: #9467bd; fill-opacity: 0.9; stroke: #9467bd; stroke-opacity: 0.9"/>
     <use xlink:href="#m2a806ac34c" x="229.63135" y="60.784186" style="fill: #9467bd; fill-opacity: 0.9; stroke: #9467bd; stroke-opacity: 0.9"/>
     <use xlink:href="#m2a806ac34c" x="280.065662" y="69.15565" style="fill: #9467bd; fill-opacity: 0.9; stroke: #9467bd; stroke-opacity: 0.9"/>
     <use xlink:href="#m2a806ac34c" x="266.598338" y="39.52728" style="fill: #9467bd; fill-opacity: 0.9; stroke: #9467bd; stroke-opacity: 0.9"/>
    </g>
   </g>
   <g id="LineCollection_5">
    <path d="M 271.566057 205.82325 
L 271.566057 79.633062 
" clip-path="url(#p001e907244)" style="fill: none; stroke: #ff7f0e; stroke-opacity: 0.9; stroke-width: 0.7"/>
    <path d="M 94.205169 246.444201 
L 94.205169 117.585689 
" clip-path="url(#p001e907244)" style="fill: none; stroke: #ff7f0e; stroke-opacity: 0.9; stroke-width: 0.7"/>
    <path d="M 229.63135 174.523486 
L 229.63135 45.471185 
" clip-path="url(#p001e907244)" style="fill: none; stroke: #ff7f0e; stroke-opacity: 0.9; stroke-width: 0.7"/>
    <path d="M 201.436435 173.664253 
L 201.436435 58.075816 
" clip-path="url(#p001e907244)" style="fill: none; stroke: #ff7f0e; stroke-opacity: 0.9; stroke-width: 0.7"/>
    <path d="M 260.934923 162.10951 
L 260.934923 40.269635 
" clip-path="url(#p001e907244)" style="fill: none; stroke: #ff7f0e; stroke-opacity: 0.9; stroke-width: 0.7"/>
   </g>
   <g id="line2d_86">
    <defs>
     <path id="m593f4dba74" d="M 2 0 
L -2 -0 
" style="stroke: #ff7f0e; stroke-opacity: 0.9"/>
    </defs>
    <g clip-path="url(#p001e907244)">
     <use xlink:href="#m593f4dba74" x="271.566057" y="205.82325" style="fill: #ff7f0e; fill-opacity: 0.9; stroke: #ff7f0e; stroke-opacity: 0.9"/>
     <use xlink:href="#m593f4dba74" x="94.205169" y="246.444201" style="fill: #ff7f0e; fill-opacity: 0.9; stroke: #ff7f0e; stroke-opacity: 0.9"/>
     <use xlink:href="#m593f4dba74" x="229.63135" y="174.523486" style="fill: #ff7f0e; fill-opacity: 0.9; stroke: #ff7f0e; stroke-opacity: 0.9"/>
     <use xlink:href="#m593f4dba74" x="201.436435" y="173.664253" style="fill: #ff7f0e; fill-opacity: 0.9; stroke: #ff7f0e; stroke-opacity: 0.9"/>
     <use xlink:href="#m593f4dba74" x="260.934923" y="162.10951" style="fill: #ff7f0e; fill-opacity: 0.9; stroke: #ff7f0e; stroke-opacity: 0.9"/>
    </g>
   </g>
   <g id="line2d_87">
    <g clip-path="url(#p001e907244)">
     <use xlink:href="#m593f4dba74" x="271.566057" y="79.633062" style="fill: #ff7f0e; fill-opacity: 0.9; stroke: #ff7f0e; stroke-opacity: 0.9"/>
     <use xlink:href="#m593f4dba74" x="94.205169" y="117.585689" style="fill: #ff7f0e; fill-opacity: 0.9; stroke: #ff7f0e; stroke-opacity: 0.9"/>
     <use xlink:href="#m593f4dba74" x="229.63135" y="45.471185" style="fill: #ff7f0e; fill-opacity: 0.9; stroke: #ff7f0e; stroke-opacity: 0.9"/>
     <use xlink:href="#m593f4dba74" x="201.436435" y="58.075816" style="fill: #ff7f0e; fill-opacity: 0.9; stroke: #ff7f0e; stroke-opacity: 0.9"/>
     <use xlink:href="#m593f4dba74" x="260.934923" y="40.269635" style="fill: #ff7f0e; fill-opacity: 0.9; stroke: #ff7f0e; stroke-opacity: 0.9"/>
    </g>
   </g>
   <g id="line2d_88">
    <defs>
     <path id="m4343466601" d="M 0 3 
C 0.795609 3 1.55874 2.683901 2.12132 2.12132 
C 2.683901 1.55874 3 0.795609 3 0 
C 3 -0.795609 2.683901 -1.55874 2.12132 -2.12132 
C 1.55874 -2.683901 0.795609 -3 0 -3 
C -0.795609 -3 -1.55874 -2.683901 -2.12132 -2.12132 
C -2.683901 -1.55874 -3 -0.795609 -3 0 
C -3 0.795609 -2.683901 1.55874 -2.12132 2.12132 
C -1.55874 2.683901 -0.795609 3 0 3 
z
" style="stroke: #1f77b4; stroke-opacity: 0.9"/>
    </defs>
    <g clip-path="url(#p001e907244)">
     <use xlink:href="#m4343466601" x="213.015794" y="132.44087" style="fill: #1f77b4; fill-opacity: 0.9; stroke: #1f77b4; stroke-opacity: 0.9"/>
     <use xlink:href="#m4343466601" x="301.454265" y="117.161174" style="fill: #1f77b4; fill-opacity: 0.9; stroke: #1f77b4; stroke-opacity: 0.9"/>
     <use xlink:href="#m4343466601" x="63.192023" y="176.970261" style="fill: #1f77b4; fill-opacity: 0.9; stroke: #1f77b4; stroke-opacity: 0.9"/>
     <use xlink:href="#m4343466601" x="243.205602" y="133.093305" style="fill: #1f77b4; fill-opacity: 0.9; stroke: #1f77b4; stroke-opacity: 0.9"/>
     <use xlink:href="#m4343466601" x="296.450425" y="97.551449" style="fill: #1f77b4; fill-opacity: 0.9; stroke: #1f77b4; stroke-opacity: 0.9"/>
     <use xlink:href="#m4343466601" x="274.372955" y="98.570875" style="fill: #1f77b4; fill-opacity: 0.9; stroke: #1f77b4; stroke-opacity: 0.9"/>
    </g>
   </g>
   <g id="line2d_89">
    <defs>
     <path id="ma6ca952ae2" d="M -3 3 
L 3 3 
L 3 -3 
L -3 -3 
z
" style="stroke: #d62728; stroke-opacity: 0.9; stroke-linejoin: miter"/>
    </defs>
    <g clip-path="url(#p001e907244)">
     <use xlink:href="#ma6ca952ae2" x="245.393896" y="132.109168" style="fill: #d62728; fill-opacity: 0.9; stroke: #d62728; stroke-opacity: 0.9; stroke-linejoin: miter"/>
     <use xlink:href="#ma6ca952ae2" x="288.501274" y="132.109168" style="fill: #d62728; fill-opacity: 0.9; stroke: #d62728; stroke-opacity: 0.9; stroke-linejoin: miter"/>
     <use xlink:href="#ma6ca952ae2" x="329.064754" y="137.345493" style="fill: #d62728; fill-opacity: 0.9; stroke: #d62728; stroke-opacity: 0.9; stroke-linejoin: miter"/>
     <use xlink:href="#ma6ca952ae2" x="293.964296" y="109.298738" style="fill: #d62728; fill-opacity: 0.9; stroke: #d62728; stroke-opacity: 0.9; stroke-linejoin: miter"/>
     <use xlink:href="#ma6ca952ae2" x="280.898557" y="100.467691" style="fill: #d62728; fill-opacity: 0.9; stroke: #d62728; stroke-opacity: 0.9; stroke-linejoin: miter"/>
     <use xlink:href="#ma6ca952ae2" x="281.924787" y="110.926593" style="fill: #d62728; fill-opacity: 0.9; stroke: #d62728; stroke-opacity: 0.9; stroke-linejoin: miter"/>
    </g>
   </g>
   <g id="line2d_90">
    <defs>
     <path id="m14a70d95ae" d="M -0 4.242641 
L 4.242641 0 
L 0 -4.242641 
L -4.242641 -0 
z
" style="stroke: #2ca02c; stroke-opacity: 0.9; stroke-linejoin: miter"/>
    </defs>
    <g clip-path="url(#p001e907244)">
     <use xlink:href="#m14a70d95ae" x="303.088491" y="104.986517" style="fill: #2ca02c; fill-opacity: 0.9; stroke: #2ca02c; stroke-opacity: 0.9; stroke-linejoin: miter"/>
     <use xlink:href="#m14a70d95ae" x="102.91763" y="179.115041" style="fill: #2ca02c; fill-opacity: 0.9; stroke: #2ca02c; stroke-opacity: 0.9; stroke-linejoin: miter"/>
     <use xlink:href="#m14a70d95ae" x="227.300827" y="133.678902" style="fill: #2ca02c; fill-opacity: 0.9; stroke: #2ca02c; stroke-opacity: 0.9; stroke-linejoin: miter"/>
     <use xlink:href="#m14a70d95ae" x="285.873938" y="107.656309" style="fill: #2ca02c; fill-opacity: 0.9; stroke: #2ca02c; stroke-opacity: 0.9; stroke-linejoin: miter"/>
     <use xlink:href="#m14a70d95ae" x="273.682591" y="152.115729" style="fill: #2ca02c; fill-opacity: 0.9; stroke: #2ca02c; stroke-opacity: 0.9; stroke-linejoin: miter"/>
     <use xlink:href="#m14a70d95ae" x="276.400823" y="125.447882" style="fill: #2ca02c; fill-opacity: 0.9; stroke: #2ca02c; stroke-opacity: 0.9; stroke-linejoin: miter"/>
    </g>
   </g>
   <g id="line2d_91">
    <defs>
     <path id="m792982c545" d="M 0 -3 
L -3 3 
L 3 3 
z
" style="stroke: #9467bd; stroke-opacity: 0.9; stroke-linejoin: miter"/>
    </defs>
    <g clip-path="url(#p001e907244)">
     <use xlink:href="#m792982c545" x="276.178625" y="130.26063" style="fill: #9467bd; fill-opacity: 0.9; stroke: #9467bd; stroke-opacity: 0.9; stroke-linejoin: miter"/>
     <use xlink:href="#m792982c545" x="236.156952" y="130.970406" style="fill: #9467bd; fill-opacity: 0.9; stroke: #9467bd; stroke-opacity: 0.9; stroke-linejoin: miter"/>
     <use xlink:href="#m792982c545" x="311.982222" y="120.644303" style="fill: #9467bd; fill-opacity: 0.9; stroke: #9467bd; stroke-opacity: 0.9; stroke-linejoin: miter"/>
     <use xlink:href="#m792982c545" x="229.63135" y="120.963967" style="fill: #9467bd; fill-opacity: 0.9; stroke: #9467bd; stroke-opacity: 0.9; stroke-linejoin: miter"/>
     <use xlink:href="#m792982c545" x="280.065662" y="126.49793" style="fill: #9467bd; fill-opacity: 0.9; stroke: #9467bd; stroke-opacity: 0.9; stroke-linejoin: miter"/>
     <use xlink:href="#m792982c545" x="266.598338" y="101.81474" style="fill: #9467bd; fill-opacity: 0.9; stroke: #9467bd; stroke-opacity: 0.9; stroke-linejoin: miter"/>
    </g>
   </g>
   <g id="line2d_92">
    <defs>
     <path id="m3bd571f724" d="M -0 3 
L 3 -3 
L -3 -3 
z
" style="stroke: #ff7f0e; stroke-opacity: 0.9; stroke-linejoin: miter"/>
    </defs>
    <g clip-path="url(#p001e907244)">
     <use xlink:href="#m3bd571f724" x="271.566057" y="142.728156" style="fill: #ff7f0e; fill-opacity: 0.9; stroke: #ff7f0e; stroke-opacity: 0.9; stroke-linejoin: miter"/>
     <use xlink:href="#m3bd571f724" x="94.205169" y="182.014945" style="fill: #ff7f0e; fill-opacity: 0.9; stroke: #ff7f0e; stroke-opacity: 0.9; stroke-linejoin: miter"/>
     <use xlink:href="#m3bd571f724" x="229.63135" y="109.997336" style="fill: #ff7f0e; fill-opacity: 0.9; stroke: #ff7f0e; stroke-opacity: 0.9; stroke-linejoin: miter"/>
     <use xlink:href="#m3bd571f724" x="201.436435" y="115.870035" style="fill: #ff7f0e; fill-opacity: 0.9; stroke: #ff7f0e; stroke-opacity: 0.9; stroke-linejoin: miter"/>
     <use xlink:href="#m3bd571f724" x="260.934923" y="101.189572" style="fill: #ff7f0e; fill-opacity: 0.9; stroke: #ff7f0e; stroke-opacity: 0.9; stroke-linejoin: miter"/>
    </g>
   </g>
   <g id="patch_3">
    <path d="M 58.824759 318.047558 
L 58.824759 20.790769 
" style="fill: none; stroke: #000000; stroke-width: 0.8; stroke-linejoin: miter; stroke-linecap: square"/>
   </g>
   <g id="patch_4">
    <path d="M 356.081548 318.047558 
L 356.081548 20.790769 
" style="fill: none; stroke: #000000; stroke-width: 0.8; stroke-linejoin: miter; stroke-linecap: square"/>
   </g>
   <g id="patch_5">
    <path d="M 58.824759 318.047558 
L 356.081548 318.047558 
" style="fill: none; stroke: #000000; stroke-width: 0.8; stroke-linejoin: miter; stroke-linecap: square"/>
   </g>
   <g id="patch_6">
    <path d="M 58.824759 20.790769 
L 356.081548 20.790769 
" style="fill: none; stroke: #000000; stroke-width: 0.8; stroke-linejoin: miter; stroke-linecap: square"/>
   </g>
   <g id="text_9">
    <g id="patch_7">
     <path d="M 281.519229 310.652931 
L 347.163844 310.652931 
Q 348.686921 310.652931 348.686921 309.129854 
L 348.686921 292.039979 
Q 348.686921 290.516902 347.163844 290.516902 
L 281.519229 290.516902 
Q 279.996152 290.516902 279.996152 292.039979 
L 279.996152 309.129854 
Q 279.996152 310.652931 281.519229 310.652931 
z
" style="fill: #ffffff; opacity: 0.75; stroke: #999999; stroke-linejoin: miter"/>
    </g>
    <!-- OME = 0.245 [0.171, 0.329] -->
    <g transform="translate(285.514132 296.132455) scale(0.050769 -0.050769)">
     <defs>
      <path id="Cmr10-4f" d="M 2491 -141 
Q 1881 -141 1395 182 
Q 909 506 634 1042 
Q 359 1578 359 2169 
Q 359 2606 517 3034 
Q 675 3463 958 3794 
Q 1241 4125 1637 4319 
Q 2034 4513 2491 4513 
Q 2944 4513 3342 4317 
Q 3741 4122 4025 3787 
Q 4309 3453 4462 3037 
Q 4616 2622 4616 2169 
Q 4616 1578 4341 1042 
Q 4066 506 3578 182 
Q 3091 -141 2491 -141 
z
M 1428 691 
Q 1616 397 1891 223 
Q 2166 50 2491 50 
Q 2700 50 2901 134 
Q 3103 219 3267 366 
Q 3431 513 3547 691 
Q 3928 1266 3928 2272 
Q 3928 3194 3547 3731 
Q 3359 4000 3079 4162 
Q 2800 4325 2491 4325 
Q 2178 4325 1897 4162 
Q 1616 4000 1428 3731 
Q 1278 3522 1195 3286 
Q 1113 3050 1078 2797 
Q 1044 2544 1044 2272 
Q 1044 1981 1076 1704 
Q 1109 1428 1198 1162 
Q 1288 897 1428 691 
z
" transform="scale(0.015625)"/>
      <path id="Cmr10-4d" d="M 225 0 
L 225 225 
Q 884 225 884 603 
L 884 3944 
Q 884 4147 225 4147 
L 225 4372 
L 1434 4372 
Q 1513 4372 1538 4300 
L 2931 678 
L 4325 4300 
Q 4350 4372 4428 4372 
L 5638 4372 
L 5638 4147 
Q 4978 4147 4978 3944 
L 4978 428 
Q 4978 225 5638 225 
L 5638 0 
L 3775 0 
L 3775 225 
Q 4434 225 4434 428 
L 4434 4153 
L 2859 72 
Q 2831 0 2753 0 
Q 2672 0 2644 72 
L 1088 4103 
L 1088 603 
Q 1088 225 1747 225 
L 1747 0 
L 225 0 
z
" transform="scale(0.015625)"/>
      <path id="Cmr10-45" d="M 197 0 
L 197 225 
Q 856 225 856 428 
L 856 3944 
Q 856 4147 197 4147 
L 197 4372 
L 3816 4372 
L 3994 2906 
L 3809 2906 
Q 3741 3459 3617 3709 
Q 3494 3959 3222 4053 
Q 2950 4147 2406 4147 
L 1778 4147 
Q 1663 4147 1598 4137 
Q 1534 4128 1493 4083 
Q 1453 4038 1453 3944 
L 1453 2381 
L 1925 2381 
Q 2250 2381 2411 2436 
Q 2572 2491 2633 2645 
Q 2694 2800 2694 3128 
L 2881 3128 
L 2881 1409 
L 2694 1409 
Q 2694 1734 2633 1890 
Q 2572 2047 2411 2101 
Q 2250 2156 1925 2156 
L 1453 2156 
L 1453 428 
Q 1453 291 1531 258 
Q 1609 225 1778 225 
L 2456 225 
Q 2900 225 3173 295 
Q 3447 366 3598 530 
Q 3750 694 3833 955 
Q 3916 1216 3988 1678 
L 4172 1678 
L 3903 0 
L 197 0 
z
" transform="scale(0.015625)"/>
      <path id="Cmr10-3d" d="M 481 850 
Q 428 850 393 890 
Q 359 931 359 978 
Q 359 1031 393 1068 
Q 428 1106 481 1106 
L 4500 1106 
Q 4547 1106 4581 1068 
Q 4616 1031 4616 978 
Q 4616 931 4581 890 
Q 4547 850 4500 850 
L 481 850 
z
M 481 2094 
Q 428 2094 393 2131 
Q 359 2169 359 2222 
Q 359 2269 393 2309 
Q 428 2350 481 2350 
L 4500 2350 
Q 4547 2350 4581 2309 
Q 4616 2269 4616 2222 
Q 4616 2169 4581 2131 
Q 4547 2094 4500 2094 
L 481 2094 
z
" transform="scale(0.015625)"/>
      <path id="Cmr10-2e" d="M 538 353 
Q 538 497 644 600 
Q 750 703 891 703 
Q 978 703 1062 656 
Q 1147 609 1194 525 
Q 1241 441 1241 353 
Q 1241 213 1137 106 
Q 1034 0 891 0 
Q 750 0 644 106 
Q 538 213 538 353 
z
" transform="scale(0.015625)"/>
      <path id="Cmr10-32" d="M 319 0 
L 319 172 
Q 319 188 331 206 
L 1325 1306 
Q 1550 1550 1690 1715 
Q 1831 1881 1968 2097 
Q 2106 2313 2186 2536 
Q 2266 2759 2266 3009 
Q 2266 3272 2169 3511 
Q 2072 3750 1880 3894 
Q 1688 4038 1416 4038 
Q 1138 4038 916 3870 
Q 694 3703 603 3438 
Q 628 3444 672 3444 
Q 816 3444 917 3347 
Q 1019 3250 1019 3097 
Q 1019 2950 917 2848 
Q 816 2747 672 2747 
Q 522 2747 420 2851 
Q 319 2956 319 3097 
Q 319 3338 409 3548 
Q 500 3759 670 3923 
Q 841 4088 1055 4175 
Q 1269 4263 1509 4263 
Q 1875 4263 2190 4108 
Q 2506 3953 2690 3670 
Q 2875 3388 2875 3009 
Q 2875 2731 2753 2481 
Q 2631 2231 2440 2026 
Q 2250 1822 1953 1562 
Q 1656 1303 1563 1216 
L 838 519 
L 1453 519 
Q 1906 519 2211 526 
Q 2516 534 2534 550 
Q 2609 631 2688 1141 
L 2875 1141 
L 2694 0 
L 319 0 
z
" transform="scale(0.015625)"/>
      <path id="Cmr10-34" d="M 178 1056 
L 178 1281 
L 2156 4231 
Q 2178 4263 2222 4263 
L 2316 4263 
Q 2388 4263 2388 4191 
L 2388 1281 
L 3016 1281 
L 3016 1056 
L 2388 1056 
L 2388 428 
Q 2388 297 2575 261 
Q 2763 225 3009 225 
L 3009 0 
L 1247 0 
L 1247 225 
Q 1494 225 1681 261 
Q 1869 297 1869 428 
L 1869 1056 
L 178 1056 
z
M 391 1281 
L 1906 1281 
L 1906 3547 
L 391 1281 
z
" transform="scale(0.015625)"/>
      <path id="Cmr10-35" d="M 556 728 
Q 622 541 758 387 
Q 894 234 1080 148 
Q 1266 63 1466 63 
Q 1928 63 2103 422 
Q 2278 781 2278 1294 
Q 2278 1516 2270 1667 
Q 2263 1819 2228 1959 
Q 2169 2184 2020 2353 
Q 1872 2522 1656 2522 
Q 1441 2522 1286 2456 
Q 1131 2391 1034 2303 
Q 938 2216 863 2119 
Q 788 2022 769 2016 
L 697 2016 
Q 681 2016 657 2036 
Q 634 2056 634 2075 
L 634 4213 
Q 634 4228 654 4245 
Q 675 4263 697 4263 
L 716 4263 
Q 1147 4056 1631 4056 
Q 2106 4056 2547 4263 
L 2566 4263 
Q 2588 4263 2606 4247 
Q 2625 4231 2625 4213 
L 2625 4153 
Q 2625 4122 2613 4122 
Q 2394 3831 2064 3668 
Q 1734 3506 1381 3506 
Q 1125 3506 856 3578 
L 856 2369 
Q 1069 2541 1236 2614 
Q 1403 2688 1663 2688 
Q 2016 2688 2295 2484 
Q 2575 2281 2725 1954 
Q 2875 1628 2875 1288 
Q 2875 903 2686 575 
Q 2497 247 2172 53 
Q 1847 -141 1466 -141 
Q 1150 -141 886 21 
Q 622 184 470 459 
Q 319 734 319 1044 
Q 319 1188 412 1278 
Q 506 1369 647 1369 
Q 788 1369 883 1276 
Q 978 1184 978 1044 
Q 978 906 883 811 
Q 788 716 647 716 
Q 625 716 597 720 
Q 569 725 556 728 
z
" transform="scale(0.015625)"/>
      <path id="Cmr10-5b" d="M 756 -1600 
L 756 4800 
L 1631 4800 
L 1631 4544 
L 1013 4544 
L 1013 -1344 
L 1631 -1344 
L 1631 -1600 
L 756 -1600 
z
" transform="scale(0.015625)"/>
      <path id="Cmr10-37" d="M 1113 166 
Q 1113 522 1175 862 
Q 1238 1203 1358 1536 
Q 1478 1869 1648 2189 
Q 1819 2509 2022 2791 
L 2606 3603 
L 1875 3603 
Q 738 3603 703 3572 
Q 619 3469 544 2981 
L 359 2981 
L 569 4325 
L 756 4325 
L 756 4306 
Q 756 4191 1147 4156 
Q 1538 4122 1913 4122 
L 3103 4122 
L 3103 3956 
Q 3103 3950 3101 3947 
Q 3100 3944 3097 3938 
L 2216 2700 
Q 1891 2219 1809 1631 
Q 1728 1044 1728 166 
Q 1728 41 1637 -50 
Q 1547 -141 1422 -141 
Q 1294 -141 1203 -50 
Q 1113 41 1113 166 
z
" transform="scale(0.015625)"/>
      <path id="Cmr10-2c" d="M 634 -1153 
Q 634 -1125 659 -1100 
Q 891 -878 1019 -587 
Q 1147 -297 1147 25 
L 1147 103 
Q 1044 0 891 0 
Q 744 0 641 103 
Q 538 206 538 353 
Q 538 503 641 603 
Q 744 703 891 703 
Q 1119 703 1216 492 
Q 1313 281 1313 25 
Q 1313 -331 1170 -651 
Q 1028 -972 769 -1228 
Q 744 -1241 728 -1241 
Q 697 -1241 665 -1212 
Q 634 -1184 634 -1153 
z
" transform="scale(0.015625)"/>
      <path id="Cmr10-39" d="M 722 269 
Q 897 63 1331 63 
Q 1575 63 1786 228 
Q 1997 394 2113 634 
Q 2247 906 2284 1214 
Q 2322 1522 2322 1978 
Q 2213 1719 2008 1553 
Q 1803 1388 1538 1388 
Q 1166 1388 873 1589 
Q 581 1791 425 2120 
Q 269 2450 269 2822 
Q 269 3206 444 3539 
Q 619 3872 928 4067 
Q 1238 4263 1631 4263 
Q 2019 4263 2280 4052 
Q 2541 3841 2678 3508 
Q 2816 3175 2870 2803 
Q 2925 2431 2925 2069 
Q 2925 1575 2744 1061 
Q 2563 547 2202 203 
Q 1841 -141 1331 -141 
Q 953 -141 690 37 
Q 428 216 428 575 
Q 428 706 517 795 
Q 606 884 738 884 
Q 866 884 955 795 
Q 1044 706 1044 575 
Q 1044 450 953 359 
Q 863 269 738 269 
L 722 269 
z
M 1563 1556 
Q 1825 1556 1992 1732 
Q 2159 1909 2234 2171 
Q 2309 2434 2309 2694 
L 2309 2816 
L 2309 2841 
Q 2309 3322 2168 3700 
Q 2028 4078 1631 4078 
Q 1378 4078 1220 3967 
Q 1063 3856 988 3672 
Q 913 3488 892 3278 
Q 872 3069 872 2822 
Q 872 2459 906 2203 
Q 941 1947 1094 1751 
Q 1247 1556 1563 1556 
z
" transform="scale(0.015625)"/>
      <path id="Cmr10-5d" d="M 141 -1600 
L 141 -1344 
L 763 -1344 
L 763 4544 
L 141 4544 
L 141 4800 
L 1019 4800 
L 1019 -1600 
L 141 -1600 
z
" transform="scale(0.015625)"/>
     </defs>
     <use xlink:href="#Cmr10-4f"/>
     <use xlink:href="#Cmr10-4d" transform="translate(77.685547 0)"/>
     <use xlink:href="#Cmr10-45" transform="translate(169.287109 0)"/>
     <use xlink:href="#Cmr10-20" transform="translate(237.304688 0)"/>
     <use xlink:href="#Cmr10-3d" transform="translate(270.605469 0)"/>
     <use xlink:href="#Cmr10-20" transform="translate(348.291016 0)"/>
     <use xlink:href="#Cmr10-30" transform="translate(381.591797 0)"/>
     <use xlink:href="#Cmr10-2e" transform="translate(431.591797 0)"/>
     <use xlink:href="#Cmr10-32" transform="translate(459.277344 0)"/>
     <use xlink:href="#Cmr10-34" transform="translate(509.277344 0)"/>
     <use xlink:href="#Cmr10-35" transform="translate(559.277344 0)"/>
     <use xlink:href="#Cmr10-20" transform="translate(609.277344 0)"/>
     <use xlink:href="#Cmr10-5b" transform="translate(642.578125 0)"/>
     <use xlink:href="#Cmr10-30" transform="translate(670.263672 0)"/>
     <use xlink:href="#Cmr10-2e" transform="translate(720.263672 0)"/>
     <use xlink:href="#Cmr10-31" transform="translate(747.949219 0)"/>
     <use xlink:href="#Cmr10-37" transform="translate(797.949219 0)"/>
     <use xlink:href="#Cmr10-31" transform="translate(847.949219 0)"/>
     <use xlink:href="#Cmr10-2c" transform="translate(897.949219 0)"/>
     <use xlink:href="#Cmr10-20" transform="translate(925.634766 0)"/>
     <use xlink:href="#Cmr10-30" transform="translate(958.935547 0)"/>
     <use xlink:href="#Cmr10-2e" transform="translate(1008.935547 0)"/>
     <use xlink:href="#Cmr10-33" transform="translate(1036.621094 0)"/>
     <use xlink:href="#Cmr10-32" transform="translate(1086.621094 0)"/>
     <use xlink:href="#Cmr10-39" transform="translate(1136.621094 0)"/>
     <use xlink:href="#Cmr10-5d" transform="translate(1186.621094 0)"/>
    </g>
    <!-- LogR$^2$ = 0.403 [-0.198, 0.497] -->
    <g transform="translate(281.519229 302.580147) scale(0.050769 -0.050769)">
     <defs>
      <path id="Cmr10-4c" d="M 197 0 
L 197 225 
Q 856 225 856 428 
L 856 3944 
Q 856 4147 197 4147 
L 197 4372 
L 2272 4372 
L 2272 4147 
Q 1453 4147 1453 3944 
L 1453 428 
Q 1453 291 1531 258 
Q 1609 225 1778 225 
L 2272 225 
Q 2750 225 3009 400 
Q 3269 575 3376 876 
Q 3484 1178 3541 1678 
L 3725 1678 
L 3547 0 
L 197 0 
z
" transform="scale(0.015625)"/>
      <path id="Cmr10-67" d="M 178 -500 
Q 178 -272 343 -101 
Q 509 69 738 141 
Q 609 238 542 384 
Q 475 531 475 697 
Q 475 997 666 1228 
Q 372 1516 372 1888 
Q 372 2088 458 2263 
Q 544 2438 697 2566 
Q 850 2694 1037 2761 
Q 1225 2828 1422 2828 
Q 1803 2828 2106 2606 
Q 2238 2747 2417 2823 
Q 2597 2900 2791 2900 
Q 2928 2900 3015 2801 
Q 3103 2703 3103 2566 
Q 3103 2488 3043 2428 
Q 2984 2369 2906 2369 
Q 2825 2369 2765 2428 
Q 2706 2488 2706 2566 
Q 2706 2684 2784 2731 
Q 2453 2731 2216 2503 
Q 2331 2388 2401 2220 
Q 2472 2053 2472 1888 
Q 2472 1616 2322 1398 
Q 2172 1181 1926 1061 
Q 1681 941 1422 941 
Q 1072 941 781 1131 
Q 691 1006 691 850 
Q 691 681 802 554 
Q 913 428 1081 428 
L 1606 428 
Q 1988 428 2294 359 
Q 2600 291 2808 84 
Q 3016 -122 3016 -500 
Q 3016 -781 2778 -967 
Q 2541 -1153 2211 -1236 
Q 1881 -1319 1600 -1319 
Q 1316 -1319 984 -1236 
Q 653 -1153 415 -967 
Q 178 -781 178 -500 
z
M 538 -500 
Q 538 -716 713 -861 
Q 888 -1006 1134 -1076 
Q 1381 -1147 1600 -1147 
Q 1816 -1147 2062 -1076 
Q 2309 -1006 2482 -861 
Q 2656 -716 2656 -500 
Q 2656 -166 2350 -67 
Q 2044 31 1606 31 
L 1081 31 
Q 934 31 811 -39 
Q 688 -109 613 -236 
Q 538 -363 538 -500 
z
M 1422 1113 
Q 1966 1113 1966 1888 
Q 1966 2222 1850 2439 
Q 1734 2656 1422 2656 
Q 1109 2656 993 2439 
Q 878 2222 878 1888 
Q 878 1675 922 1503 
Q 966 1331 1084 1222 
Q 1203 1113 1422 1113 
z
" transform="scale(0.015625)"/>
      <path id="Cmr10-52" d="M 213 0 
L 213 225 
Q 872 225 872 428 
L 872 3944 
Q 872 4147 213 4147 
L 213 4372 
L 2222 4372 
Q 2581 4372 2976 4242 
Q 3372 4113 3637 3847 
Q 3903 3581 3903 3213 
Q 3903 2944 3742 2733 
Q 3581 2522 3329 2380 
Q 3078 2238 2816 2175 
Q 3103 2075 3318 1856 
Q 3534 1638 3578 1356 
L 3669 788 
Q 3731 403 3800 214 
Q 3869 25 4103 25 
Q 4303 25 4401 211 
Q 4500 397 4500 616 
Q 4500 638 4520 655 
Q 4541 672 4563 672 
L 4622 672 
Q 4684 672 4684 588 
Q 4684 413 4615 245 
Q 4547 78 4417 -31 
Q 4288 -141 4109 -141 
Q 3647 -141 3314 89 
Q 2981 319 2981 763 
L 2981 1331 
Q 2981 1650 2759 1878 
Q 2538 2106 2216 2106 
L 1447 2106 
L 1447 428 
Q 1447 225 2106 225 
L 2106 0 
L 213 0 
z
M 1447 2272 
L 2131 2272 
Q 2663 2272 2941 2486 
Q 3219 2700 3219 3213 
Q 3219 3722 2944 3934 
Q 2669 4147 2131 4147 
L 1772 4147 
Q 1656 4147 1592 4137 
Q 1528 4128 1487 4083 
Q 1447 4038 1447 3944 
L 1447 2272 
z
" transform="scale(0.015625)"/>
      <path id="Cmr10-2d" d="M 72 1184 
L 72 1581 
L 1766 1581 
L 1766 1184 
L 72 1184 
z
" transform="scale(0.015625)"/>
      <path id="Cmr10-38" d="M 269 972 
Q 269 1356 522 1651 
Q 775 1947 1172 2144 
L 934 2297 
Q 716 2441 578 2680 
Q 441 2919 441 3181 
Q 441 3488 602 3734 
Q 763 3981 1030 4122 
Q 1297 4263 1600 4263 
Q 1884 4263 2148 4147 
Q 2413 4031 2583 3815 
Q 2753 3600 2753 3303 
Q 2753 3088 2651 2903 
Q 2550 2719 2373 2572 
Q 2197 2425 1997 2322 
L 2363 2088 
Q 2616 1922 2770 1653 
Q 2925 1384 2925 1088 
Q 2925 741 2739 456 
Q 2553 172 2247 15 
Q 1941 -141 1600 -141 
Q 1269 -141 961 -6 
Q 653 128 461 383 
Q 269 638 269 972 
z
M 616 972 
Q 616 719 755 509 
Q 894 300 1122 181 
Q 1350 63 1600 63 
Q 1972 63 2275 280 
Q 2578 497 2578 856 
Q 2578 978 2529 1098 
Q 2481 1219 2395 1317 
Q 2309 1416 2203 1478 
L 1344 2034 
Q 1144 1928 976 1765 
Q 809 1603 712 1400 
Q 616 1197 616 972 
z
M 1056 2925 
L 1831 2425 
Q 2100 2581 2272 2803 
Q 2444 3025 2444 3303 
Q 2444 3519 2323 3698 
Q 2203 3878 2009 3978 
Q 1816 4078 1594 4078 
Q 1400 4078 1203 4003 
Q 1006 3928 878 3779 
Q 750 3631 750 3431 
Q 750 3131 1056 2925 
z
" transform="scale(0.015625)"/>
     </defs>
     <use xlink:href="#Cmr10-4c" transform="translate(0 0.109375)"/>
     <use xlink:href="#Cmr10-6f" transform="translate(62.5 0.109375)"/>
     <use xlink:href="#Cmr10-67" transform="translate(112.5 0.109375)"/>
     <use xlink:href="#Cmr10-52" transform="translate(162.5 0.109375)"/>
     <use xlink:href="#Cmr10-32" transform="translate(240.548125 38.373438) scale(0.7)"/>
     <use xlink:href="#Cmr10-20" transform="translate(281.925469 0.109375)"/>
     <use xlink:href="#Cmr10-3d" transform="translate(315.22625 0.109375)"/>
     <use xlink:href="#Cmr10-20" transform="translate(392.911797 0.109375)"/>
     <use xlink:href="#Cmr10-30" transform="translate(426.212578 0.109375)"/>
     <use xlink:href="#Cmr10-2e" transform="translate(476.212578 0.109375)"/>
     <use xlink:href="#Cmr10-34" transform="translate(503.898125 0.109375)"/>
     <use xlink:href="#Cmr10-30" transform="translate(553.898125 0.109375)"/>
     <use xlink:href="#Cmr10-33" transform="translate(603.898125 0.109375)"/>
     <use xlink:href="#Cmr10-20" transform="translate(653.898125 0.109375)"/>
     <use xlink:href="#Cmr10-5b" transform="translate(687.198906 0.109375)"/>
     <use xlink:href="#Cmr10-2d" transform="translate(714.884453 0.109375)"/>
     <use xlink:href="#Cmr10-30" transform="translate(748.185234 0.109375)"/>
     <use xlink:href="#Cmr10-2e" transform="translate(798.185234 0.109375)"/>
     <use xlink:href="#Cmr10-31" transform="translate(825.870781 0.109375)"/>
     <use xlink:href="#Cmr10-39" transform="translate(875.870781 0.109375)"/>
     <use xlink:href="#Cmr10-38" transform="translate(925.870781 0.109375)"/>
     <use xlink:href="#Cmr10-2c" transform="translate(975.870781 0.109375)"/>
     <use xlink:href="#Cmr10-20" transform="translate(1003.556328 0.109375)"/>
     <use xlink:href="#Cmr10-30" transform="translate(1036.857109 0.109375)"/>
     <use xlink:href="#Cmr10-2e" transform="translate(1086.857109 0.109375)"/>
     <use xlink:href="#Cmr10-34" transform="translate(1114.542656 0.109375)"/>
     <use xlink:href="#Cmr10-39" transform="translate(1164.542656 0.109375)"/>
     <use xlink:href="#Cmr10-37" transform="translate(1214.542656 0.109375)"/>
     <use xlink:href="#Cmr10-5d" transform="translate(1264.542656 0.109375)"/>
    </g>
    <!-- 5 folds, n = 29 rows -->
    <g transform="translate(302.424253 308.145407) scale(0.050769 -0.050769)">
     <defs>
      <path id="Cmr10-66" d="M 206 0 
L 206 225 
Q 422 225 562 259 
Q 703 294 703 428 
L 703 2534 
L 213 2534 
L 213 2759 
L 703 2759 
L 703 3525 
Q 703 3731 789 3911 
Q 875 4091 1020 4225 
Q 1166 4359 1355 4436 
Q 1544 4513 1747 4513 
Q 1963 4513 2136 4384 
Q 2309 4256 2309 4044 
Q 2309 3922 2226 3839 
Q 2144 3756 2022 3756 
Q 1900 3756 1814 3839 
Q 1728 3922 1728 4044 
Q 1728 4244 1900 4313 
Q 1797 4347 1716 4347 
Q 1528 4347 1395 4214 
Q 1263 4081 1197 3890 
Q 1131 3700 1131 3513 
L 1131 2759 
L 1869 2759 
L 1869 2534 
L 1153 2534 
L 1153 428 
Q 1153 297 1340 261 
Q 1528 225 1772 225 
L 1772 0 
L 206 0 
z
" transform="scale(0.015625)"/>
      <path id="Cmr10-6c" d="M 197 0 
L 197 225 
Q 416 225 556 259 
Q 697 294 697 428 
L 697 3788 
Q 697 3959 645 4036 
Q 594 4113 497 4130 
Q 400 4147 197 4147 
L 197 4372 
L 1147 4441 
L 1147 428 
Q 1147 294 1287 259 
Q 1428 225 1644 225 
L 1644 0 
L 197 0 
z
" transform="scale(0.015625)"/>
      <path id="Cmr10-73" d="M 213 -19 
L 213 1025 
Q 213 1075 269 1075 
L 347 1075 
Q 384 1075 397 1025 
Q 575 97 1259 97 
Q 1563 97 1767 234 
Q 1972 372 1972 659 
Q 1972 866 1812 1011 
Q 1653 1156 1434 1209 
L 1006 1294 
Q 791 1341 614 1437 
Q 438 1534 325 1695 
Q 213 1856 213 2069 
Q 213 2350 361 2529 
Q 509 2709 746 2789 
Q 984 2869 1259 2869 
Q 1588 2869 1831 2694 
L 2016 2853 
Q 2016 2869 2047 2869 
L 2094 2869 
Q 2113 2869 2128 2851 
Q 2144 2834 2144 2816 
L 2144 1978 
Q 2144 1919 2094 1919 
L 2016 1919 
Q 1959 1919 1959 1978 
Q 1959 2313 1773 2516 
Q 1588 2719 1253 2719 
Q 966 2719 755 2612 
Q 544 2506 544 2247 
Q 544 2069 695 1955 
Q 847 1841 1050 1791 
L 1484 1709 
Q 1703 1659 1892 1540 
Q 2081 1422 2192 1240 
Q 2303 1059 2303 831 
Q 2303 600 2223 429 
Q 2144 259 2001 146 
Q 1859 34 1665 -19 
Q 1472 -72 1259 -72 
Q 859 -72 575 197 
L 341 -56 
Q 341 -72 306 -72 
L 269 -72 
Q 213 -72 213 -19 
z
" transform="scale(0.015625)"/>
      <path id="Cmr10-6e" d="M 191 0 
L 191 225 
Q 409 225 550 259 
Q 691 294 691 428 
L 691 2175 
Q 691 2347 639 2423 
Q 588 2500 491 2517 
Q 394 2534 191 2534 
L 191 2759 
L 1119 2828 
L 1119 2203 
Q 1247 2478 1498 2653 
Q 1750 2828 2047 2828 
Q 2491 2828 2714 2615 
Q 2938 2403 2938 1966 
L 2938 428 
Q 2938 294 3078 259 
Q 3219 225 3438 225 
L 3438 0 
L 1972 0 
L 1972 225 
Q 2191 225 2331 259 
Q 2472 294 2472 428 
L 2472 1947 
Q 2472 2259 2381 2461 
Q 2291 2663 2009 2663 
Q 1638 2663 1398 2366 
Q 1159 2069 1159 1691 
L 1159 428 
Q 1159 294 1300 259 
Q 1441 225 1656 225 
L 1656 0 
L 191 0 
z
" transform="scale(0.015625)"/>
      <path id="Cmr10-77" d="M 1416 0 
L 588 2328 
Q 531 2469 425 2501 
Q 319 2534 116 2534 
L 116 2759 
L 1434 2759 
L 1434 2534 
Q 1056 2534 1056 2375 
Q 1059 2366 1061 2356 
Q 1063 2347 1063 2328 
L 1678 603 
L 2209 2106 
L 2125 2328 
Q 2075 2469 1965 2501 
Q 1856 2534 1656 2534 
L 1656 2759 
L 2919 2759 
L 2919 2534 
Q 2541 2534 2541 2375 
Q 2541 2350 2547 2328 
L 3188 525 
L 3769 2156 
Q 3781 2206 3781 2247 
Q 3781 2381 3667 2457 
Q 3553 2534 3413 2534 
L 3413 2759 
L 4500 2759 
L 4500 2534 
Q 4306 2534 4167 2432 
Q 4028 2331 3963 2156 
L 3200 0 
Q 3178 -72 3103 -72 
L 3053 -72 
Q 2978 -72 2956 0 
L 2309 1825 
L 1663 0 
Q 1631 -72 1563 -72 
L 1516 -72 
Q 1438 -72 1416 0 
z
" transform="scale(0.015625)"/>
     </defs>
     <use xlink:href="#Cmr10-35"/>
     <use xlink:href="#Cmr10-20" transform="translate(50 0)"/>
     <use xlink:href="#Cmr10-66" transform="translate(83.300781 0)"/>
     <use xlink:href="#Cmr10-6f" transform="translate(113.818359 0)"/>
     <use xlink:href="#Cmr10-6c" transform="translate(163.818359 0)"/>
     <use xlink:href="#Cmr10-64" transform="translate(191.503906 0)"/>
     <use xlink:href="#Cmr10-73" transform="translate(247.021484 0)"/>
     <use xlink:href="#Cmr10-2c" transform="translate(286.425781 0)"/>
     <use xlink:href="#Cmr10-20" transform="translate(314.111328 0)"/>
     <use xlink:href="#Cmr10-6e" transform="translate(347.412109 0)"/>
     <use xlink:href="#Cmr10-20" transform="translate(402.929688 0)"/>
     <use xlink:href="#Cmr10-3d" transform="translate(436.230469 0)"/>
     <use xlink:href="#Cmr10-20" transform="translate(513.916016 0)"/>
     <use xlink:href="#Cmr10-32" transform="translate(547.216797 0)"/>
     <use xlink:href="#Cmr10-39" transform="translate(597.216797 0)"/>
     <use xlink:href="#Cmr10-20" transform="translate(647.216797 0)"/>
     <use xlink:href="#Cmr10-72" transform="translate(680.517578 0)"/>
     <use xlink:href="#Cmr10-6f" transform="translate(719.628906 0)"/>
     <use xlink:href="#Cmr10-77" transform="translate(769.628906 0)"/>
     <use xlink:href="#Cmr10-73" transform="translate(841.845703 0)"/>
    </g>
   </g>
   <g id="text_10">
    <!-- Gaussian Process Regression | Restricted-Group Split -->
    <g transform="translate(115.5426 16.56) scale(0.076154 -0.076154)">
     <defs>
      <path id="Cmr10-47" d="M 1472 684 
Q 1703 403 2036 243 
Q 2369 84 2731 84 
Q 3088 84 3378 265 
Q 3669 447 3669 781 
L 3669 1319 
Q 3669 1522 2869 1522 
L 2869 1747 
L 4703 1747 
L 4703 1522 
Q 4500 1522 4381 1487 
Q 4263 1453 4263 1319 
L 4263 56 
Q 4263 34 4245 17 
Q 4228 0 4206 0 
Q 4147 0 4008 140 
Q 3869 281 3788 391 
Q 3631 122 3297 -9 
Q 2963 -141 2597 -141 
Q 1975 -141 1464 179 
Q 953 500 656 1036 
Q 359 1572 359 2188 
Q 359 2641 531 3069 
Q 703 3497 1011 3822 
Q 1319 4147 1728 4330 
Q 2138 4513 2597 4513 
Q 2928 4513 3223 4370 
Q 3519 4228 3750 3969 
L 4122 4494 
Q 4159 4513 4166 4513 
L 4213 4513 
Q 4231 4513 4247 4497 
Q 4263 4481 4263 4459 
L 4263 2731 
Q 4263 2675 4213 2675 
L 4097 2675 
Q 4038 2675 4038 2731 
Q 4038 2916 3964 3144 
Q 3891 3372 3777 3576 
Q 3663 3781 3513 3938 
Q 3153 4288 2688 4288 
Q 2331 4288 2006 4128 
Q 1681 3969 1459 3688 
Q 1225 3388 1134 3005 
Q 1044 2622 1044 2188 
Q 1044 1206 1472 684 
z
" transform="scale(0.015625)"/>
      <path id="Cmr10-7c" d="M 0 1619 
L 0 1784 
L 6394 1784 
L 6394 1619 
L 0 1619 
z
" transform="scale(0.015625)"/>
      <path id="Cmr10-70" d="M 166 -1241 
L 166 -1019 
Q 384 -1019 525 -981 
Q 666 -944 666 -813 
L 666 2272 
Q 666 2447 541 2490 
Q 416 2534 166 2534 
L 166 2759 
L 1113 2828 
L 1113 2431 
Q 1288 2625 1520 2726 
Q 1753 2828 2016 2828 
Q 2394 2828 2697 2623 
Q 3000 2419 3170 2086 
Q 3341 1753 3341 1381 
Q 3341 994 3152 659 
Q 2963 325 2636 126 
Q 2309 -72 1919 -72 
Q 1453 -72 1131 306 
L 1131 -813 
Q 1131 -944 1273 -981 
Q 1416 -1019 1631 -1019 
L 1631 -1241 
L 166 -1241 
z
M 1131 622 
Q 1244 394 1444 245 
Q 1644 97 1881 97 
Q 2103 97 2273 215 
Q 2444 334 2559 534 
Q 2675 734 2729 954 
Q 2784 1175 2784 1381 
Q 2784 1638 2692 1936 
Q 2600 2234 2411 2439 
Q 2222 2644 1953 2644 
Q 1694 2644 1476 2511 
Q 1259 2378 1131 2150 
L 1131 622 
z
" transform="scale(0.015625)"/>
      <path id="Cmr10-53" d="M 359 -91 
L 359 1403 
Q 359 1453 416 1453 
L 494 1453 
Q 513 1453 528 1437 
Q 544 1422 544 1403 
Q 544 775 933 429 
Q 1322 84 1953 84 
Q 2175 84 2362 212 
Q 2550 341 2654 548 
Q 2759 756 2759 978 
Q 2759 1172 2681 1355 
Q 2603 1538 2456 1672 
Q 2309 1806 2125 1850 
L 1294 2053 
Q 881 2163 620 2502 
Q 359 2841 359 3263 
Q 359 3594 528 3884 
Q 697 4175 983 4344 
Q 1269 4513 1600 4513 
Q 2241 4513 2619 4078 
L 2881 4494 
Q 2900 4513 2925 4513 
L 2969 4513 
Q 2988 4513 3005 4498 
Q 3022 4484 3022 4459 
L 3022 2975 
Q 3022 2919 2969 2919 
L 2894 2919 
Q 2834 2919 2834 2975 
Q 2834 3138 2779 3331 
Q 2725 3525 2628 3703 
Q 2531 3881 2419 3994 
Q 2109 4306 1600 4306 
Q 1381 4306 1197 4195 
Q 1013 4084 903 3893 
Q 794 3703 794 3494 
Q 794 3219 964 2995 
Q 1134 2772 1409 2700 
L 2241 2497 
Q 2447 2447 2630 2317 
Q 2813 2188 2934 2016 
Q 3056 1844 3125 1633 
Q 3194 1422 3194 1197 
Q 3194 850 3034 542 
Q 2875 234 2586 46 
Q 2297 -141 1953 -141 
Q 1741 -141 1519 -94 
Q 1297 -47 1109 50 
Q 922 147 769 300 
L 500 -122 
Q 481 -141 453 -141 
L 416 -141 
Q 359 -141 359 -91 
z
" transform="scale(0.015625)"/>
     </defs>
     <use xlink:href="#Cmr10-47"/>
     <use xlink:href="#Cmr10-61" transform="translate(78.417969 0)"/>
     <use xlink:href="#Cmr10-75" transform="translate(128.417969 0)"/>
     <use xlink:href="#Cmr10-73" transform="translate(183.935547 0)"/>
     <use xlink:href="#Cmr10-73" transform="translate(223.339844 0)"/>
     <use xlink:href="#Cmr10-69" transform="translate(262.744141 0)"/>
     <use xlink:href="#Cmr10-61" transform="translate(290.429688 0)"/>
     <use xlink:href="#Cmr10-6e" transform="translate(340.429688 0)"/>
     <use xlink:href="#Cmr10-20" transform="translate(395.947266 0)"/>
     <use xlink:href="#Cmr10-50" transform="translate(429.248047 0)"/>
     <use xlink:href="#Cmr10-72" transform="translate(497.265625 0)"/>
     <use xlink:href="#Cmr10-6f" transform="translate(536.376953 0)"/>
     <use xlink:href="#Cmr10-63" transform="translate(586.376953 0)"/>
     <use xlink:href="#Cmr10-65" transform="translate(630.761719 0)"/>
     <use xlink:href="#Cmr10-73" transform="translate(675.146484 0)"/>
     <use xlink:href="#Cmr10-73" transform="translate(714.550781 0)"/>
     <use xlink:href="#Cmr10-20" transform="translate(753.955078 0)"/>
     <use xlink:href="#Cmr10-52" transform="translate(787.255859 0)"/>
     <use xlink:href="#Cmr10-65" transform="translate(860.839844 0)"/>
     <use xlink:href="#Cmr10-67" transform="translate(905.224609 0)"/>
     <use xlink:href="#Cmr10-72" transform="translate(955.224609 0)"/>
     <use xlink:href="#Cmr10-65" transform="translate(994.335938 0)"/>
     <use xlink:href="#Cmr10-73" transform="translate(1038.720703 0)"/>
     <use xlink:href="#Cmr10-73" transform="translate(1078.125 0)"/>
     <use xlink:href="#Cmr10-69" transform="translate(1117.529297 0)"/>
     <use xlink:href="#Cmr10-6f" transform="translate(1145.214844 0)"/>
     <use xlink:href="#Cmr10-6e" transform="translate(1195.214844 0)"/>
     <use xlink:href="#Cmr10-20" transform="translate(1250.732422 0)"/>
     <use xlink:href="#Cmr10-7c" transform="translate(1284.033203 0)"/>
     <use xlink:href="#Cmr10-20" transform="translate(1384.033203 0)"/>
     <use xlink:href="#Cmr10-52" transform="translate(1417.333984 0)"/>
     <use xlink:href="#Cmr10-65" transform="translate(1490.917969 0)"/>
     <use xlink:href="#Cmr10-73" transform="translate(1535.302734 0)"/>
     <use xlink:href="#Cmr10-74" transform="translate(1574.707031 0)"/>
     <use xlink:href="#Cmr10-72" transform="translate(1613.525391 0)"/>
     <use xlink:href="#Cmr10-69" transform="translate(1652.636719 0)"/>
     <use xlink:href="#Cmr10-63" transform="translate(1680.322266 0)"/>
     <use xlink:href="#Cmr10-74" transform="translate(1724.707031 0)"/>
     <use xlink:href="#Cmr10-65" transform="translate(1763.525391 0)"/>
     <use xlink:href="#Cmr10-64" transform="translate(1807.910156 0)"/>
     <use xlink:href="#Cmr10-2d" transform="translate(1863.427734 0)"/>
     <use xlink:href="#Cmr10-47" transform="translate(1896.728516 0)"/>
     <use xlink:href="#Cmr10-72" transform="translate(1975.146484 0)"/>
     <use xlink:href="#Cmr10-6f" transform="translate(2014.257812 0)"/>
     <use xlink:href="#Cmr10-75" transform="translate(2064.257812 0)"/>
     <use xlink:href="#Cmr10-70" transform="translate(2119.775391 0)"/>
     <use xlink:href="#Cmr10-20" transform="translate(2175.292969 0)"/>
     <use xlink:href="#Cmr10-53" transform="translate(2208.59375 0)"/>
     <use xlink:href="#Cmr10-70" transform="translate(2264.111328 0)"/>
     <use xlink:href="#Cmr10-6c" transform="translate(2319.628906 0)"/>
     <use xlink:href="#Cmr10-69" transform="translate(2347.314453 0)"/>
     <use xlink:href="#Cmr10-74" transform="translate(2375 0)"/>
    </g>
   </g>
   <g id="legend_1">
    <g id="patch_8">
     <path d="M 68.619895 76.210124 
L 106.488254 76.210124 
Q 107.588254 76.210124 107.588254 75.110124 
L 107.588254 30.585905 
Q 107.588254 29.485905 106.488254 29.485905 
L 68.619895 29.485905 
Q 67.519895 29.485905 67.519895 30.585905 
L 67.519895 75.110124 
Q 67.519895 76.210124 68.619895 76.210124 
z
" style="fill: #ffffff; opacity: 0.75; stroke: #999999; stroke-linejoin: miter"/>
    </g>
    <g id="LineCollection_6">
     <path d="M 77.419895 38.589264 
L 77.419895 33.089264 
" style="fill: none; stroke: #1f77b4; stroke-opacity: 0.9; stroke-width: 0.7"/>
    </g>
    <g id="line2d_93">
     <g>
      <use xlink:href="#m33f34e3cd3" x="77.419895" y="38.589264" style="fill: #1f77b4; fill-opacity: 0.9; stroke: #1f77b4; stroke-opacity: 0.9"/>
     </g>
    </g>
    <g id="line2d_94">
     <g>
      <use xlink:href="#m33f34e3cd3" x="77.419895" y="33.089264" style="fill: #1f77b4; fill-opacity: 0.9; stroke: #1f77b4; stroke-opacity: 0.9"/>
     </g>
    </g>
    <g id="line2d_95"/>
    <g id="line2d_96">
     <g>
      <use xlink:href="#m4343466601" x="77.419895" y="35.839264" style="fill: #1f77b4; fill-opacity: 0.9; stroke: #1f77b4; stroke-opacity: 0.9"/>
     </g>
    </g>
    <g id="text_11">
     <!-- Split 1 -->
     <g transform="translate(87.319895 37.764264) scale(0.055 -0.055)">
      <use xlink:href="#Cmr10-53"/>
      <use xlink:href="#Cmr10-70" transform="translate(55.517578 0)"/>
      <use xlink:href="#Cmr10-6c" transform="translate(111.035156 0)"/>
      <use xlink:href="#Cmr10-69" transform="translate(138.720703 0)"/>
      <use xlink:href="#Cmr10-74" transform="translate(166.40625 0)"/>
      <use xlink:href="#Cmr10-20" transform="translate(205.224609 0)"/>
      <use xlink:href="#Cmr10-31" transform="translate(238.525391 0)"/>
     </g>
    </g>
    <g id="LineCollection_7">
     <path d="M 77.419895 46.834108 
L 77.419895 41.334108 
" style="fill: none; stroke: #d62728; stroke-opacity: 0.9; stroke-width: 0.7"/>
    </g>
    <g id="line2d_97">
     <g>
      <use xlink:href="#maa6eea618a" x="77.419895" y="46.834108" style="fill: #d62728; fill-opacity: 0.9; stroke: #d62728; stroke-opacity: 0.9"/>
     </g>
    </g>
    <g id="line2d_98">
     <g>
      <use xlink:href="#maa6eea618a" x="77.419895" y="41.334108" style="fill: #d62728; fill-opacity: 0.9; stroke: #d62728; stroke-opacity: 0.9"/>
     </g>
    </g>
    <g id="line2d_99"/>
    <g id="line2d_100">
     <g>
      <use xlink:href="#ma6ca952ae2" x="77.419895" y="44.084108" style="fill: #d62728; fill-opacity: 0.9; stroke: #d62728; stroke-opacity: 0.9; stroke-linejoin: miter"/>
     </g>
    </g>
    <g id="text_12">
     <!-- Split 2 -->
     <g transform="translate(87.319895 46.009108) scale(0.055 -0.055)">
      <use xlink:href="#Cmr10-53"/>
      <use xlink:href="#Cmr10-70" transform="translate(55.517578 0)"/>
      <use xlink:href="#Cmr10-6c" transform="translate(111.035156 0)"/>
      <use xlink:href="#Cmr10-69" transform="translate(138.720703 0)"/>
      <use xlink:href="#Cmr10-74" transform="translate(166.40625 0)"/>
      <use xlink:href="#Cmr10-20" transform="translate(205.224609 0)"/>
      <use xlink:href="#Cmr10-32" transform="translate(238.525391 0)"/>
     </g>
    </g>
    <g id="LineCollection_8">
     <path d="M 77.419895 55.078952 
L 77.419895 49.578952 
" style="fill: none; stroke: #2ca02c; stroke-opacity: 0.9; stroke-width: 0.7"/>
    </g>
    <g id="line2d_101">
     <g>
      <use xlink:href="#m3481cd2b3f" x="77.419895" y="55.078952" style="fill: #2ca02c; fill-opacity: 0.9; stroke: #2ca02c; stroke-opacity: 0.9"/>
     </g>
    </g>
    <g id="line2d_102">
     <g>
      <use xlink:href="#m3481cd2b3f" x="77.419895" y="49.578952" style="fill: #2ca02c; fill-opacity: 0.9; stroke: #2ca02c; stroke-opacity: 0.9"/>
     </g>
    </g>
    <g id="line2d_103"/>
    <g id="line2d_104">
     <g>
      <use xlink:href="#m14a70d95ae" x="77.419895" y="52.328952" style="fill: #2ca02c; fill-opacity: 0.9; stroke: #2ca02c; stroke-opacity: 0.9; stroke-linejoin: miter"/>
     </g>
    </g>
    <g id="text_13">
     <!-- Split 3 -->
     <g transform="translate(87.319895 54.253952) scale(0.055 -0.055)">
      <use xlink:href="#Cmr10-53"/>
      <use xlink:href="#Cmr10-70" transform="translate(55.517578 0)"/>
      <use xlink:href="#Cmr10-6c" transform="translate(111.035156 0)"/>
      <use xlink:href="#Cmr10-69" transform="translate(138.720703 0)"/>
      <use xlink:href="#Cmr10-74" transform="translate(166.40625 0)"/>
      <use xlink:href="#Cmr10-20" transform="translate(205.224609 0)"/>
      <use xlink:href="#Cmr10-33" transform="translate(238.525391 0)"/>
     </g>
    </g>
    <g id="LineCollection_9">
     <path d="M 77.419895 63.323796 
L 77.419895 57.823796 
" style="fill: none; stroke: #9467bd; stroke-opacity: 0.9; stroke-width: 0.7"/>
    </g>
    <g id="line2d_105">
     <g>
      <use xlink:href="#m2a806ac34c" x="77.419895" y="63.323796" style="fill: #9467bd; fill-opacity: 0.9; stroke: #9467bd; stroke-opacity: 0.9"/>
     </g>
    </g>
    <g id="line2d_106">
     <g>
      <use xlink:href="#m2a806ac34c" x="77.419895" y="57.823796" style="fill: #9467bd; fill-opacity: 0.9; stroke: #9467bd; stroke-opacity: 0.9"/>
     </g>
    </g>
    <g id="line2d_107"/>
    <g id="line2d_108">
     <g>
      <use xlink:href="#m792982c545" x="77.419895" y="60.573796" style="fill: #9467bd; fill-opacity: 0.9; stroke: #9467bd; stroke-opacity: 0.9; stroke-linejoin: miter"/>
     </g>
    </g>
    <g id="text_14">
     <!-- Split 4 -->
     <g transform="translate(87.319895 62.498796) scale(0.055 -0.055)">
      <use xlink:href="#Cmr10-53"/>
      <use xlink:href="#Cmr10-70" transform="translate(55.517578 0)"/>
      <use xlink:href="#Cmr10-6c" transform="translate(111.035156 0)"/>
      <use xlink:href="#Cmr10-69" transform="translate(138.720703 0)"/>
      <use xlink:href="#Cmr10-74" transform="translate(166.40625 0)"/>
      <use xlink:href="#Cmr10-20" transform="translate(205.224609 0)"/>
      <use xlink:href="#Cmr10-34" transform="translate(238.525391 0)"/>
     </g>
    </g>
    <g id="LineCollection_10">
     <path d="M 77.419895 71.568639 
L 77.419895 66.068639 
" style="fill: none; stroke: #ff7f0e; stroke-opacity: 0.9; stroke-width: 0.7"/>
    </g>
    <g id="line2d_109">
     <g>
      <use xlink:href="#m593f4dba74" x="77.419895" y="71.568639" style="fill: #ff7f0e; fill-opacity: 0.9; stroke: #ff7f0e; stroke-opacity: 0.9"/>
     </g>
    </g>
    <g id="line2d_110">
     <g>
      <use xlink:href="#m593f4dba74" x="77.419895" y="66.068639" style="fill: #ff7f0e; fill-opacity: 0.9; stroke: #ff7f0e; stroke-opacity: 0.9"/>
     </g>
    </g>
    <g id="line2d_111"/>
    <g id="line2d_112">
     <g>
      <use xlink:href="#m3bd571f724" x="77.419895" y="68.818639" style="fill: #ff7f0e; fill-opacity: 0.9; stroke: #ff7f0e; stroke-opacity: 0.9; stroke-linejoin: miter"/>
     </g>
    </g>
    <g id="text_15">
     <!-- Split 5 -->
     <g transform="translate(87.319895 70.743639) scale(0.055 -0.055)">
      <use xlink:href="#Cmr10-53"/>
      <use xlink:href="#Cmr10-70" transform="translate(55.517578 0)"/>
      <use xlink:href="#Cmr10-6c" transform="translate(111.035156 0)"/>
      <use xlink:href="#Cmr10-69" transform="translate(138.720703 0)"/>
      <use xlink:href="#Cmr10-74" transform="translate(166.40625 0)"/>
      <use xlink:href="#Cmr10-20" transform="translate(205.224609 0)"/>
      <use xlink:href="#Cmr10-35" transform="translate(238.525391 0)"/>
     </g>
    </g>
   </g>
  </g>
 </g>
 <defs>
  <clipPath id="p001e907244">
   <rect x="58.824759" y="20.790769" width="297.256788" height="297.256788"/>
  </clipPath>
 </defs>
</svg>
